<svg width="633" height="347" viewBox="0 0 633 347" fill="none" xmlns="http://www.w3.org/2000/svg">
<mask id="path-1-inside-1_51_166" fill="white">
<path fill-rule="evenodd" clip-rule="evenodd" d="M422 252H211V307.5V308H211.008C211.723 329.585 258.68 347 316.5 347C374.32 347 421.277 329.585 421.992 308H422V307.5V252Z"/>
</mask>
<path fill-rule="evenodd" clip-rule="evenodd" d="M422 252H211V307.5V308H211.008C211.723 329.585 258.68 347 316.5 347C374.32 347 421.277 329.585 421.992 308H422V307.5V252Z" fill="url(#paint0_linear_51_166)"/>
<path d="M211 252V250.839H209.839V252H211ZM422 252H423.161V250.839H422V252ZM211 308H209.839V309.161H211V308ZM211.008 308L212.168 307.962L212.131 306.839H211.008V308ZM421.992 308V306.839H420.869L420.832 307.962L421.992 308ZM422 308V309.161H423.161V308H422ZM211 253.161H422V250.839H211V253.161ZM212.161 307.5V252H209.839V307.5H212.161ZM212.161 308V307.5H209.839V308H212.161ZM211.008 306.839H211V309.161H211.008V306.839ZM316.5 345.839C287.692 345.839 261.64 341.499 242.743 334.506C233.29 331.008 225.685 326.867 220.421 322.321C215.152 317.773 212.332 312.915 212.168 307.962L209.848 308.038C210.042 313.877 213.359 319.291 218.904 324.078C224.451 328.869 232.334 333.129 241.937 336.683C261.152 343.793 287.488 348.161 316.5 348.161V345.839ZM420.832 307.962C420.668 312.915 417.848 317.773 412.579 322.321C407.315 326.867 399.71 331.008 390.257 334.506C371.36 341.499 345.308 345.839 316.5 345.839V348.161C345.512 348.161 371.848 343.793 391.063 336.683C400.666 333.129 408.549 328.869 414.096 324.078C419.641 319.291 422.958 313.877 423.152 308.038L420.832 307.962ZM422 306.839H421.992V309.161H422V306.839ZM420.839 307.5V308H423.161V307.5H420.839ZM420.839 252V307.5H423.161V252H420.839Z" fill="url(#paint1_linear_51_166)" fill-opacity="0.5" mask="url(#path-1-inside-1_51_166)"/>
<ellipse cx="316.5" cy="252.5" rx="105.5" ry="39.5" fill="url(#paint2_linear_51_166)"/>
<path d="M421.42 252.5C421.42 257.728 418.592 262.778 413.325 267.441C408.058 272.103 400.404 276.327 390.896 279.887C371.885 287.005 345.582 291.42 316.5 291.42C287.418 291.42 261.115 287.005 242.104 279.887C232.596 276.327 224.942 272.103 219.675 267.441C214.408 262.778 211.58 257.728 211.58 252.5C211.58 247.272 214.408 242.222 219.675 237.559C224.942 232.897 232.596 228.673 242.104 225.113C261.115 217.995 287.418 213.58 316.5 213.58C345.582 213.58 371.885 217.995 390.896 225.113C400.404 228.673 408.058 232.897 413.325 237.559C418.592 242.222 421.42 247.272 421.42 252.5Z" stroke="url(#paint3_linear_51_166)" stroke-opacity="0.5" stroke-width="1.16055"/>
<mask id="path-5-inside-2_51_166" fill="white">
<path fill-rule="evenodd" clip-rule="evenodd" d="M211 252H0V307.5V308H0.0082789C0.723429 329.585 47.6798 347 105.5 347C163.32 347 210.277 329.585 210.992 308H211V307.5V252Z"/>
</mask>
<path fill-rule="evenodd" clip-rule="evenodd" d="M211 252H0V307.5V308H0.0082789C0.723429 329.585 47.6798 347 105.5 347C163.32 347 210.277 329.585 210.992 308H211V307.5V252Z" fill="url(#paint4_linear_51_166)"/>
<path d="M0 252V250.839H-1.16055V252H0ZM211 252H212.161V250.839H211V252ZM0 308H-1.16055V309.161H0V308ZM0.0082789 308L1.16819 307.962L1.13101 306.839H0.0082789V308ZM210.992 308V306.839H209.869L209.832 307.962L210.992 308ZM211 308V309.161H212.161V308H211ZM0 253.161H211V250.839H0V253.161ZM1.16055 307.5V252H-1.16055V307.5H1.16055ZM1.16055 308V307.5H-1.16055V308H1.16055ZM0.0082789 306.839H0V309.161H0.0082789V306.839ZM105.5 345.839C76.6916 345.839 50.6399 341.499 31.7425 334.506C22.2899 331.008 14.6851 326.867 9.42056 322.321C4.15241 317.773 1.33232 312.915 1.16819 307.962L-1.15163 308.038C-0.958189 313.877 2.35945 319.291 7.90362 324.078C13.4515 328.869 21.3336 333.129 30.937 336.683C50.1516 343.793 76.4881 348.161 105.5 348.161V345.839ZM209.832 307.962C209.668 312.915 206.848 317.773 201.579 322.321C196.315 326.867 188.71 331.008 179.257 334.506C160.36 341.499 134.308 345.839 105.5 345.839V348.161C134.512 348.161 160.848 343.793 180.063 336.683C189.666 333.129 197.549 328.869 203.096 324.078C208.641 319.291 211.958 313.877 212.152 308.038L209.832 307.962ZM211 306.839H210.992V309.161H211V306.839ZM209.839 307.5V308H212.161V307.5H209.839ZM209.839 252V307.5H212.161V252H209.839Z" fill="url(#paint5_linear_51_166)" fill-opacity="0.5" mask="url(#path-5-inside-2_51_166)"/>
<ellipse cx="105.5" cy="252.5" rx="105.5" ry="39.5" fill="url(#paint6_linear_51_166)"/>
<path d="M210.42 252.5C210.42 257.728 207.592 262.778 202.325 267.441C197.058 272.103 189.404 276.327 179.896 279.887C160.885 287.005 134.582 291.42 105.5 291.42C76.4181 291.42 50.1151 287.005 31.1037 279.887C21.5958 276.327 13.9419 272.103 8.67533 267.441C3.40805 262.778 0.580274 257.728 0.580274 252.5C0.580274 247.272 3.40805 242.222 8.67533 237.559C13.9419 232.897 21.5958 228.673 31.1037 225.113C50.1151 217.995 76.4181 213.58 105.5 213.58C134.582 213.58 160.885 217.995 179.896 225.113C189.404 228.673 197.058 232.897 202.325 237.559C207.592 242.222 210.42 247.272 210.42 252.5Z" stroke="url(#paint7_linear_51_166)" stroke-opacity="0.5" stroke-width="1.16055"/>
<mask id="path-9-inside-3_51_166" fill="white">
<path fill-rule="evenodd" clip-rule="evenodd" d="M633 252H422V307.5V308H422.008C422.723 329.585 469.68 347 527.5 347C585.32 347 632.277 329.585 632.992 308H633V307.5V252Z"/>
</mask>
<path fill-rule="evenodd" clip-rule="evenodd" d="M633 252H422V307.5V308H422.008C422.723 329.585 469.68 347 527.5 347C585.32 347 632.277 329.585 632.992 308H633V307.5V252Z" fill="url(#paint8_linear_51_166)"/>
<path d="M422 252V250.839H420.839V252H422ZM633 252H634.161V250.839H633V252ZM422 308H420.839V309.161H422V308ZM422.008 308L423.168 307.962L423.131 306.839H422.008V308ZM632.992 308V306.839H631.869L631.832 307.962L632.992 308ZM633 308V309.161H634.161V308H633ZM422 253.161H633V250.839H422V253.161ZM423.161 307.5V252H420.839V307.5H423.161ZM423.161 308V307.5H420.839V308H423.161ZM422.008 306.839H422V309.161H422.008V306.839ZM527.5 345.839C498.692 345.839 472.64 341.499 453.743 334.506C444.29 331.008 436.685 326.867 431.421 322.321C426.152 317.773 423.332 312.915 423.168 307.962L420.848 308.038C421.042 313.877 424.359 319.291 429.904 324.078C435.451 328.869 443.334 333.129 452.937 336.683C472.152 343.793 498.488 348.161 527.5 348.161V345.839ZM631.832 307.962C631.668 312.915 628.848 317.773 623.579 322.321C618.315 326.867 610.71 331.008 601.257 334.506C582.36 341.499 556.308 345.839 527.5 345.839V348.161C556.512 348.161 582.848 343.793 602.063 336.683C611.666 333.129 619.549 328.869 625.096 324.078C630.641 319.291 633.958 313.877 634.152 308.038L631.832 307.962ZM633 306.839H632.992V309.161H633V306.839ZM631.839 307.5V308H634.161V307.5H631.839ZM631.839 252V307.5H634.161V252H631.839Z" fill="url(#paint9_linear_51_166)" fill-opacity="0.5" mask="url(#path-9-inside-3_51_166)"/>
<ellipse cx="527.5" cy="252.5" rx="105.5" ry="39.5" fill="url(#paint10_linear_51_166)"/>
<path d="M632.42 252.5C632.42 257.728 629.592 262.778 624.325 267.441C619.058 272.103 611.404 276.327 601.896 279.887C582.885 287.005 556.582 291.42 527.5 291.42C498.418 291.42 472.115 287.005 453.104 279.887C443.596 276.327 435.942 272.103 430.675 267.441C425.408 262.778 422.58 257.728 422.58 252.5C422.58 247.272 425.408 242.222 430.675 237.559C435.942 232.897 443.596 228.673 453.104 225.113C472.115 217.995 498.418 213.58 527.5 213.58C556.582 213.58 582.885 217.995 601.896 225.113C611.404 228.673 619.058 232.897 624.325 237.559C629.592 242.222 632.42 247.272 632.42 252.5Z" stroke="url(#paint11_linear_51_166)" stroke-opacity="0.5" stroke-width="1.16055"/>
<mask id="path-13-inside-4_51_166" fill="white">
<path fill-rule="evenodd" clip-rule="evenodd" d="M513.533 178.29H317.197V229.865C317.197 229.887 317.197 229.91 317.197 229.932C317.197 229.955 317.197 229.977 317.197 230V230.398H317.205C317.87 250.482 361.563 266.687 415.365 266.687C469.167 266.687 512.86 250.482 513.525 230.398H513.533V178.29Z"/>
</mask>
<path fill-rule="evenodd" clip-rule="evenodd" d="M513.533 178.29H317.197V229.865C317.197 229.887 317.197 229.91 317.197 229.932C317.197 229.955 317.197 229.977 317.197 230V230.398H317.205C317.87 250.482 361.563 266.687 415.365 266.687C469.167 266.687 512.86 250.482 513.525 230.398H513.533V178.29Z" fill="url(#paint12_linear_51_166)"/>
<path d="M317.197 178.29V177.21H316.118V178.29H317.197ZM513.533 178.29H514.613V177.21H513.533V178.29ZM317.197 229.865L318.277 229.87V229.865H317.197ZM317.197 230H318.277L318.277 229.995L317.197 230ZM317.197 230.398H316.118V231.478H317.197V230.398ZM317.205 230.398L318.284 230.362L318.25 229.318H317.205V230.398ZM513.525 230.398V229.318H512.481L512.446 230.362L513.525 230.398ZM513.533 230.398V231.478H514.613V230.398H513.533ZM317.197 179.369H513.533V177.21H317.197V179.369ZM318.277 229.865V178.29H316.118V229.865H318.277ZM318.277 229.932C318.277 229.912 318.277 229.891 318.277 229.87L316.118 229.86C316.117 229.884 316.117 229.908 316.117 229.932H318.277ZM318.277 229.995C318.277 229.974 318.277 229.953 318.277 229.932H316.117C316.117 229.957 316.117 229.981 316.118 230.005L318.277 229.995ZM318.277 230.398V230H316.118V230.398H318.277ZM317.205 229.318H317.197V231.478H317.205V229.318ZM415.365 265.607C388.559 265.607 364.318 261.569 346.734 255.061C337.938 251.807 330.862 247.954 325.963 243.724C321.061 239.491 318.437 234.971 318.284 230.362L316.126 230.433C316.306 235.866 319.393 240.904 324.552 245.359C329.714 249.816 337.048 253.78 345.984 257.087C363.863 263.703 388.37 267.767 415.365 267.767V265.607ZM512.446 230.362C512.293 234.971 509.669 239.491 504.767 243.724C499.869 247.954 492.792 251.807 483.997 255.061C466.413 261.569 442.171 265.607 415.365 265.607V267.767C442.361 267.767 466.867 263.703 484.746 257.087C493.682 253.78 501.017 249.816 506.179 245.359C511.338 240.904 514.425 235.866 514.605 230.433L512.446 230.362ZM513.533 229.318H513.525V231.478H513.533V229.318ZM512.453 178.29V230.398H514.613V178.29H512.453Z" fill="url(#paint13_linear_51_166)" fill-opacity="0.5" mask="url(#path-13-inside-4_51_166)"/>
<ellipse cx="415.365" cy="178.755" rx="98.168" ry="36.7548" fill="url(#paint14_linear_51_166)"/>
<path d="M512.993 178.755C512.993 183.619 510.362 188.319 505.461 192.657C500.56 196.995 493.438 200.926 484.591 204.239C466.901 210.862 442.426 214.97 415.365 214.97C388.304 214.97 363.829 210.862 346.139 204.239C337.292 200.926 330.17 196.995 325.27 192.657C320.368 188.319 317.737 183.619 317.737 178.755C317.737 173.89 320.368 169.191 325.27 164.852C330.17 160.515 337.292 156.583 346.139 153.271C363.829 146.648 388.304 142.54 415.365 142.54C442.426 142.54 466.901 146.648 484.591 153.271C493.438 156.583 500.56 160.515 505.461 164.852C510.362 169.191 512.993 173.89 512.993 178.755Z" stroke="url(#paint15_linear_51_166)" stroke-opacity="0.5" stroke-width="1.07989"/>
<mask id="path-17-inside-5_51_166" fill="white">
<path fill-rule="evenodd" clip-rule="evenodd" d="M315.336 178.29H119V230.398H119.008C119.673 250.482 163.366 266.687 217.168 266.687C270.97 266.687 314.663 250.482 315.328 230.398H315.336V230.007C315.336 229.982 315.336 229.957 315.336 229.932C315.336 229.908 315.336 229.883 315.336 229.858V178.29Z"/>
</mask>
<path fill-rule="evenodd" clip-rule="evenodd" d="M315.336 178.29H119V230.398H119.008C119.673 250.482 163.366 266.687 217.168 266.687C270.97 266.687 314.663 250.482 315.328 230.398H315.336V230.007C315.336 229.982 315.336 229.957 315.336 229.932C315.336 229.908 315.336 229.883 315.336 229.858V178.29Z" fill="url(#paint16_linear_51_166)"/>
<path d="M119 178.29V177.21H117.92V178.29H119ZM315.336 178.29H316.416V177.21H315.336V178.29ZM119 230.398H117.92V231.478H119V230.398ZM119.008 230.398L120.087 230.362L120.053 229.318H119.008V230.398ZM315.328 230.398V229.318H314.284L314.249 230.362L315.328 230.398ZM315.336 230.398V231.478H316.416V230.398H315.336ZM315.336 230.007L314.256 230.001V230.007H315.336ZM315.336 229.858H314.256L314.256 229.864L315.336 229.858ZM119 179.369H315.336V177.21H119V179.369ZM120.08 230.398V178.29H117.92V230.398H120.08ZM119.008 229.318H119V231.478H119.008V229.318ZM217.168 265.607C190.362 265.607 166.121 261.569 148.537 255.061C139.741 251.807 132.665 247.954 127.766 243.724C122.864 239.491 120.24 234.971 120.087 230.362L117.929 230.433C118.109 235.866 121.196 240.904 126.355 245.359C131.517 249.816 138.851 253.78 147.787 257.087C165.666 263.703 190.173 267.767 217.168 267.767V265.607ZM314.249 230.362C314.096 234.971 311.472 239.491 306.57 243.724C301.672 247.954 294.595 251.807 285.8 255.061C268.216 261.569 243.974 265.607 217.168 265.607V267.767C244.164 267.767 268.67 263.703 286.549 257.087C295.485 253.78 302.82 249.816 307.982 245.359C313.141 240.904 316.228 235.866 316.408 230.433L314.249 230.362ZM315.336 229.318H315.328V231.478H315.336V229.318ZM314.256 230.007V230.398H316.416V230.007H314.256ZM314.256 229.932C314.256 229.956 314.256 229.978 314.256 230.001L316.416 230.013C316.416 229.986 316.416 229.959 316.416 229.932H314.256ZM314.256 229.864C314.256 229.886 314.256 229.909 314.256 229.932H316.416C316.416 229.906 316.416 229.879 316.416 229.852L314.256 229.864ZM314.256 178.29V229.858H316.416V178.29H314.256Z" fill="url(#paint17_linear_51_166)" fill-opacity="0.5" mask="url(#path-17-inside-5_51_166)"/>
<ellipse cx="217.168" cy="178.755" rx="98.168" ry="36.7548" fill="url(#paint18_linear_51_166)"/>
<path d="M314.796 178.755C314.796 183.619 312.165 188.319 307.263 192.657C302.363 196.995 295.241 200.926 286.394 204.239C268.704 210.862 244.229 214.97 217.168 214.97C190.107 214.97 165.632 210.862 147.942 204.239C139.095 200.926 131.973 196.995 127.072 192.657C122.171 188.319 119.54 183.619 119.54 178.755C119.54 173.89 122.171 169.191 127.072 164.852C131.973 160.515 139.095 156.583 147.942 153.271C165.632 146.648 190.107 142.54 217.168 142.54C244.229 142.54 268.704 146.648 286.394 153.271C295.241 156.583 302.363 160.515 307.263 164.852C312.165 169.191 314.796 173.89 314.796 178.755Z" stroke="url(#paint19_linear_51_166)" stroke-opacity="0.5" stroke-width="1.07989"/>
<mask id="path-21-inside-6_51_166" fill="white">
<path fill-rule="evenodd" clip-rule="evenodd" d="M409.622 112.875H224V162.139H224.008C224.637 181.128 265.945 196.448 316.811 196.448C367.677 196.448 408.985 181.128 409.615 162.139H409.622V161.777C409.622 161.751 409.622 161.725 409.622 161.699C409.622 161.673 409.622 161.647 409.622 161.621V112.875Z"/>
</mask>
<path fill-rule="evenodd" clip-rule="evenodd" d="M409.622 112.875H224V162.139H224.008C224.637 181.128 265.945 196.448 316.811 196.448C367.677 196.448 408.985 181.128 409.615 162.139H409.622V161.777C409.622 161.751 409.622 161.725 409.622 161.699C409.622 161.673 409.622 161.647 409.622 161.621V112.875Z" fill="url(#paint20_linear_51_166)"/>
<path d="M224 112.875V111.854H222.979V112.875H224ZM409.622 112.875H410.643V111.854H409.622V112.875ZM224 162.139H222.979V163.16H224V162.139ZM224.008 162.139L225.028 162.106L224.995 161.119H224.008V162.139ZM409.615 162.139V161.119H408.627L408.594 162.106L409.615 162.139ZM409.622 162.139V163.16H410.643V162.139H409.622ZM409.622 161.777L408.601 161.771V161.777H409.622ZM409.622 161.621H408.601L408.601 161.627L409.622 161.621ZM224 113.896H409.622V111.854H224V113.896ZM225.021 162.139V112.875H222.979V162.139H225.021ZM224.008 161.119H224V163.16H224.008V161.119ZM316.811 195.428C291.468 195.428 268.549 191.609 251.925 185.457C243.609 182.38 236.919 178.737 232.288 174.738C227.653 170.737 225.172 166.464 225.028 162.106L222.987 162.173C223.157 167.31 226.076 172.072 230.953 176.284C235.834 180.498 242.768 184.246 251.216 187.372C268.12 193.628 291.289 197.469 316.811 197.469V195.428ZM408.594 162.106C408.45 166.464 405.969 170.737 401.334 174.738C396.703 178.737 390.013 182.38 381.697 185.457C365.073 191.609 342.154 195.428 316.811 195.428V197.469C342.333 197.469 365.502 193.628 382.406 187.372C390.854 184.246 397.788 180.498 402.669 176.284C407.546 172.072 410.465 167.31 410.635 162.173L408.594 162.106ZM409.622 161.119H409.615V163.16H409.622V161.119ZM408.601 161.777V162.139H410.643V161.777H408.601ZM408.601 161.699C408.601 161.723 408.601 161.747 408.601 161.771L410.643 161.783C410.643 161.755 410.643 161.727 410.643 161.699H408.601ZM408.601 161.627C408.601 161.651 408.601 161.675 408.601 161.699H410.643C410.643 161.671 410.643 161.643 410.643 161.615L408.601 161.627ZM408.601 112.875V161.621H410.643V112.875H408.601Z" fill="url(#paint21_linear_51_166)" fill-opacity="0.5" mask="url(#path-21-inside-6_51_166)"/>
<ellipse cx="316.811" cy="113.314" rx="92.8108" ry="34.7491" fill="url(#paint22_linear_51_166)"/>
<path d="M409.111 113.314C409.111 117.914 406.623 122.356 401.99 126.458C397.357 130.559 390.623 134.276 382.259 137.408C365.534 143.67 342.395 147.553 316.811 147.553C291.227 147.553 268.087 143.67 251.363 137.408C242.998 134.276 236.265 130.559 231.632 126.458C226.998 122.356 224.51 117.914 224.51 113.314C224.51 108.715 226.998 104.273 231.632 100.171C236.265 96.0696 242.998 92.3529 251.363 89.2213C268.087 82.9594 291.227 79.0759 316.811 79.0759C342.395 79.0759 365.534 82.9594 382.259 89.2213C390.623 92.3529 397.357 96.0696 401.99 100.171C406.623 104.273 409.111 108.715 409.111 113.314Z" stroke="url(#paint23_linear_51_166)" stroke-opacity="0.5" stroke-width="1.02096"/>
<mask id="path-25-inside-7_51_166" fill="white">
<path fill-rule="evenodd" clip-rule="evenodd" d="M394.533 58.9614H238.822V100.288H238.829C239.356 116.216 274.009 129.068 316.678 129.068C359.347 129.068 393.999 116.216 394.527 100.288H394.533V99.9768C394.533 99.9574 394.533 99.9379 394.533 99.9185C394.533 99.899 394.533 99.8796 394.533 99.8601V58.9614Z"/>
</mask>
<path fill-rule="evenodd" clip-rule="evenodd" d="M394.533 58.9614H238.822V100.288H238.829C239.356 116.216 274.009 129.068 316.678 129.068C359.347 129.068 393.999 116.216 394.527 100.288H394.533V99.9768C394.533 99.9574 394.533 99.9379 394.533 99.9185C394.533 99.899 394.533 99.8796 394.533 99.8601V58.9614Z" fill="url(#paint24_linear_51_166)"/>
<path d="M238.822 58.9614V58.105H237.966V58.9614H238.822ZM394.533 58.9614H395.39V58.105H394.533V58.9614ZM238.822 100.288H237.966V101.144H238.822V100.288ZM238.829 100.288L239.685 100.259L239.657 99.4311H238.829V100.288ZM394.527 100.288V99.4311H393.699L393.671 100.259L394.527 100.288ZM394.533 100.288V101.144H395.39V100.288H394.533ZM394.533 99.9768L393.677 99.9721V99.9768H394.533ZM394.533 99.8601H393.677L393.677 99.8649L394.533 99.8601ZM238.822 59.8179H394.533V58.105H238.822V59.8179ZM239.679 100.288V58.9614H237.966V100.288H239.679ZM238.829 99.4311H238.822V101.144H238.829V99.4311ZM316.678 128.212C295.418 128.212 276.193 125.009 262.247 119.848C255.272 117.267 249.66 114.211 245.775 110.856C241.887 107.499 239.806 103.915 239.685 100.259L237.973 100.316C238.115 104.625 240.564 108.62 244.655 112.153C248.749 115.688 254.566 118.832 261.653 121.454C275.833 126.702 295.268 129.925 316.678 129.925V128.212ZM393.671 100.259C393.55 103.915 391.469 107.499 387.581 110.856C383.696 114.211 378.084 117.267 371.108 119.848C357.163 125.009 337.938 128.212 316.678 128.212V129.925C338.088 129.925 357.523 126.702 371.703 121.454C378.79 118.832 384.607 115.688 388.701 112.153C392.792 108.62 395.24 104.625 395.383 100.316L393.671 100.259ZM394.533 99.4311H394.527V101.144H394.533V99.4311ZM393.677 99.9768V100.288H395.39V99.9768H393.677ZM393.677 99.9185C393.677 99.9366 393.677 99.9545 393.677 99.9721L395.39 99.9815C395.39 99.9603 395.39 99.9393 395.39 99.9185H393.677ZM393.677 99.8649C393.677 99.8825 393.677 99.9004 393.677 99.9185H395.39C395.39 99.8977 395.39 99.8767 395.39 99.8554L393.677 99.8649ZM393.677 58.9614V99.8601H395.39V58.9614H393.677Z" fill="url(#paint25_linear_51_166)" fill-opacity="0.5" mask="url(#path-25-inside-7_51_166)"/>
<ellipse cx="316.678" cy="59.3304" rx="77.8555" ry="29.1497" fill="url(#paint26_linear_51_166)"/>
<path d="M394.105 59.3304C394.105 63.1884 392.018 66.9152 388.131 70.3561C384.245 73.7964 378.596 76.9142 371.58 79.5413C357.55 84.7941 338.139 88.0518 316.678 88.0518C295.216 88.0518 275.806 84.7941 261.776 79.5413C254.759 76.9142 249.111 73.7964 245.224 70.3561C241.337 66.9152 239.25 63.1884 239.25 59.3304C239.25 55.4723 241.337 51.7455 245.224 48.3046C249.111 44.8643 254.759 41.7465 261.776 39.1194C275.806 33.8666 295.216 30.6089 316.678 30.6089C338.139 30.6089 357.55 33.8666 371.58 39.1194C378.596 41.7465 384.245 44.8643 388.131 48.3046C392.018 51.7455 394.105 55.4723 394.105 59.3304Z" stroke="url(#paint27_linear_51_166)" stroke-opacity="0.5" stroke-width="0.856445"/>
<mask id="path-29-inside-8_51_166" fill="white">
<path fill-rule="evenodd" clip-rule="evenodd" d="M377.515 22.1274H257.801V53.9H257.806C258.212 66.1464 284.853 76.027 317.658 76.027C350.463 76.027 377.104 66.1464 377.511 53.9H377.515V53.6672C377.515 53.6501 377.515 53.6331 377.515 53.616C377.515 53.599 377.515 53.5819 377.515 53.5649V22.1274Z"/>
</mask>
<path fill-rule="evenodd" clip-rule="evenodd" d="M377.515 22.1274H257.801V53.9H257.806C258.212 66.1464 284.853 76.027 317.658 76.027C350.463 76.027 377.104 66.1464 377.511 53.9H377.515V53.6672C377.515 53.6501 377.515 53.6331 377.515 53.616C377.515 53.599 377.515 53.5819 377.515 53.5649V22.1274Z" fill="url(#paint28_linear_51_166)"/>
<path d="M257.801 22.1274V21.469H257.142V22.1274H257.801ZM377.515 22.1274H378.174V21.469H377.515V22.1274ZM257.801 53.9H257.142V54.5584H257.801V53.9ZM257.806 53.9L258.464 53.8781L258.443 53.2415H257.806V53.9ZM377.511 53.9V53.2415H376.874L376.852 53.8781L377.511 53.9ZM377.515 53.9V54.5584H378.174V53.9H377.515ZM377.515 53.6672L376.857 53.6634V53.6672H377.515ZM377.515 53.5649H376.857L376.857 53.5687L377.515 53.5649ZM257.801 22.7859H377.515V21.469H257.801V22.7859ZM258.459 53.9V22.1274H257.142V53.9H258.459ZM257.806 53.2415H257.801V54.5584H257.806V53.2415ZM317.658 75.3686C301.313 75.3686 286.532 72.906 275.811 68.9384C270.448 66.9537 266.133 64.6044 263.146 62.0254C260.157 59.4445 258.557 56.6888 258.464 53.8781L257.148 53.9218C257.257 57.2344 259.14 60.3061 262.285 63.0221C265.433 65.74 269.905 68.1571 275.354 70.1734C286.255 74.2077 301.198 76.6855 317.658 76.6855V75.3686ZM376.852 53.8781C376.759 56.6888 375.159 59.4445 372.17 62.0254C369.183 64.6044 364.869 66.9537 359.505 68.9384C348.784 72.906 334.003 75.3686 317.658 75.3686V76.6855C334.118 76.6855 349.061 74.2077 359.962 70.1734C365.411 68.1571 369.883 65.74 373.031 63.0221C376.176 60.3061 378.059 57.2344 378.169 53.9218L376.852 53.8781ZM377.515 53.2415H377.511V54.5584H377.515V53.2415ZM376.857 53.6672V53.9H378.174V53.6672H376.857ZM376.857 53.616C376.857 53.6317 376.857 53.6475 376.857 53.6634L378.174 53.671C378.174 53.6528 378.174 53.6345 378.174 53.616H376.857ZM376.857 53.5687C376.857 53.5846 376.857 53.6004 376.857 53.616H378.174C378.174 53.5976 378.174 53.5793 378.174 53.5611L376.857 53.5687ZM376.857 22.1274V53.5649H378.174V22.1274H376.857Z" fill="url(#paint29_linear_51_166)" fill-opacity="0.5" mask="url(#path-29-inside-8_51_166)"/>
<ellipse cx="317.658" cy="22.411" rx="59.8572" ry="22.411" fill="url(#paint30_linear_51_166)"/>
<path d="M377.186 22.411C377.186 25.3771 375.582 28.2424 372.593 30.8878C369.605 33.5329 365.262 35.9299 359.868 37.9496C349.081 41.9881 334.158 44.4927 317.658 44.4927C301.158 44.4927 286.234 41.9881 275.448 37.9496C270.054 35.9299 265.711 33.5329 262.723 30.8878C259.734 28.2424 258.13 25.3771 258.13 22.411C258.13 19.4448 259.734 16.5795 262.723 13.9341C265.711 11.2891 270.054 8.89207 275.448 6.87235C286.234 2.83382 301.158 0.329228 317.658 0.329228C334.158 0.329228 349.081 2.83382 359.868 6.87235C365.262 8.89207 369.605 11.2891 372.593 13.9341C375.582 16.5795 377.186 19.4448 377.186 22.411Z" stroke="url(#paint31_linear_51_166)" stroke-opacity="0.5" stroke-width="0.658456"/>
<defs>
<linearGradient id="paint0_linear_51_166" x1="316.5" y1="252" x2="316.5" y2="308" gradientUnits="userSpaceOnUse">
<stop stop-color="#0A2977"/>
<stop offset="1" stop-color="#051D61"/>
</linearGradient>
<linearGradient id="paint1_linear_51_166" x1="211" y1="251.133" x2="218.023" y2="327.415" gradientUnits="userSpaceOnUse">
<stop stop-color="#96AAE2" stop-opacity="0.44"/>
<stop offset="1" stop-color="#0B44EA" stop-opacity="0.13"/>
</linearGradient>
<linearGradient id="paint2_linear_51_166" x1="316.5" y1="213" x2="316.5" y2="292" gradientUnits="userSpaceOnUse">
<stop stop-color="#0A2977"/>
<stop offset="1" stop-color="#051D61"/>
</linearGradient>
<linearGradient id="paint3_linear_51_166" x1="211" y1="211.777" x2="224.861" y2="318.502" gradientUnits="userSpaceOnUse">
<stop stop-color="#96AAE2" stop-opacity="0.44"/>
<stop offset="1" stop-color="#0B44EA" stop-opacity="0.13"/>
</linearGradient>
<linearGradient id="paint4_linear_51_166" x1="105.5" y1="252" x2="105.5" y2="308" gradientUnits="userSpaceOnUse">
<stop stop-color="#0A2977"/>
<stop offset="1" stop-color="#051D61"/>
</linearGradient>
<linearGradient id="paint5_linear_51_166" x1="3.84841e-07" y1="251.133" x2="7.02269" y2="327.415" gradientUnits="userSpaceOnUse">
<stop stop-color="#96AAE2" stop-opacity="0.44"/>
<stop offset="1" stop-color="#0B44EA" stop-opacity="0.13"/>
</linearGradient>
<linearGradient id="paint6_linear_51_166" x1="105.5" y1="213" x2="105.5" y2="292" gradientUnits="userSpaceOnUse">
<stop stop-color="#0A2977"/>
<stop offset="1" stop-color="#051D61"/>
</linearGradient>
<linearGradient id="paint7_linear_51_166" x1="3.68948e-07" y1="211.777" x2="13.8606" y2="318.502" gradientUnits="userSpaceOnUse">
<stop stop-color="#96AAE2" stop-opacity="0.44"/>
<stop offset="1" stop-color="#0B44EA" stop-opacity="0.13"/>
</linearGradient>
<linearGradient id="paint8_linear_51_166" x1="527.5" y1="252" x2="527.5" y2="308" gradientUnits="userSpaceOnUse">
<stop stop-color="#0A2977"/>
<stop offset="1" stop-color="#051D61"/>
</linearGradient>
<linearGradient id="paint9_linear_51_166" x1="422" y1="251.133" x2="429.023" y2="327.415" gradientUnits="userSpaceOnUse">
<stop stop-color="#96AAE2" stop-opacity="0.44"/>
<stop offset="1" stop-color="#0B44EA" stop-opacity="0.13"/>
</linearGradient>
<linearGradient id="paint10_linear_51_166" x1="527.5" y1="213" x2="527.5" y2="292" gradientUnits="userSpaceOnUse">
<stop stop-color="#0A2977"/>
<stop offset="1" stop-color="#051D61"/>
</linearGradient>
<linearGradient id="paint11_linear_51_166" x1="422" y1="211.777" x2="435.861" y2="318.502" gradientUnits="userSpaceOnUse">
<stop stop-color="#96AAE2" stop-opacity="0.44"/>
<stop offset="1" stop-color="#0B44EA" stop-opacity="0.13"/>
</linearGradient>
<linearGradient id="paint12_linear_51_166" x1="415.365" y1="178.29" x2="415.365" y2="230.398" gradientUnits="userSpaceOnUse">
<stop stop-color="#0A2977"/>
<stop offset="1" stop-color="#051D61"/>
</linearGradient>
<linearGradient id="paint13_linear_51_166" x1="317.197" y1="177.483" x2="323.732" y2="248.464" gradientUnits="userSpaceOnUse">
<stop stop-color="#96AAE2" stop-opacity="0.44"/>
<stop offset="1" stop-color="#0B44EA" stop-opacity="0.13"/>
</linearGradient>
<linearGradient id="paint14_linear_51_166" x1="415.365" y1="142" x2="415.365" y2="215.51" gradientUnits="userSpaceOnUse">
<stop stop-color="#0A2977"/>
<stop offset="1" stop-color="#051D61"/>
</linearGradient>
<linearGradient id="paint15_linear_51_166" x1="317.197" y1="140.862" x2="330.095" y2="240.169" gradientUnits="userSpaceOnUse">
<stop stop-color="#96AAE2" stop-opacity="0.44"/>
<stop offset="1" stop-color="#0B44EA" stop-opacity="0.13"/>
</linearGradient>
<linearGradient id="paint16_linear_51_166" x1="217.168" y1="178.29" x2="217.168" y2="230.398" gradientUnits="userSpaceOnUse">
<stop stop-color="#0A2977"/>
<stop offset="1" stop-color="#051D61"/>
</linearGradient>
<linearGradient id="paint17_linear_51_166" x1="119" y1="177.483" x2="125.535" y2="248.464" gradientUnits="userSpaceOnUse">
<stop stop-color="#96AAE2" stop-opacity="0.44"/>
<stop offset="1" stop-color="#0B44EA" stop-opacity="0.13"/>
</linearGradient>
<linearGradient id="paint18_linear_51_166" x1="217.168" y1="142" x2="217.168" y2="215.51" gradientUnits="userSpaceOnUse">
<stop stop-color="#0A2977"/>
<stop offset="1" stop-color="#051D61"/>
</linearGradient>
<linearGradient id="paint19_linear_51_166" x1="119" y1="140.862" x2="131.897" y2="240.169" gradientUnits="userSpaceOnUse">
<stop stop-color="#96AAE2" stop-opacity="0.44"/>
<stop offset="1" stop-color="#0B44EA" stop-opacity="0.13"/>
</linearGradient>
<linearGradient id="paint20_linear_51_166" x1="316.811" y1="112.875" x2="316.811" y2="162.139" gradientUnits="userSpaceOnUse">
<stop stop-color="#0A2977"/>
<stop offset="1" stop-color="#051D61"/>
</linearGradient>
<linearGradient id="paint21_linear_51_166" x1="224" y1="112.112" x2="230.178" y2="179.22" gradientUnits="userSpaceOnUse">
<stop stop-color="#96AAE2" stop-opacity="0.44"/>
<stop offset="1" stop-color="#0B44EA" stop-opacity="0.13"/>
</linearGradient>
<linearGradient id="paint22_linear_51_166" x1="316.811" y1="78.5654" x2="316.811" y2="148.064" gradientUnits="userSpaceOnUse">
<stop stop-color="#0A2977"/>
<stop offset="1" stop-color="#051D61"/>
</linearGradient>
<linearGradient id="paint23_linear_51_166" x1="224" y1="77.4891" x2="236.194" y2="171.378" gradientUnits="userSpaceOnUse">
<stop stop-color="#96AAE2" stop-opacity="0.44"/>
<stop offset="1" stop-color="#0B44EA" stop-opacity="0.13"/>
</linearGradient>
<linearGradient id="paint24_linear_51_166" x1="316.678" y1="58.9614" x2="316.678" y2="100.287" gradientUnits="userSpaceOnUse">
<stop stop-color="#0A2977"/>
<stop offset="1" stop-color="#051D61"/>
</linearGradient>
<linearGradient id="paint25_linear_51_166" x1="238.822" y1="58.3214" x2="244.005" y2="114.615" gradientUnits="userSpaceOnUse">
<stop stop-color="#96AAE2" stop-opacity="0.44"/>
<stop offset="1" stop-color="#0B44EA" stop-opacity="0.13"/>
</linearGradient>
<linearGradient id="paint26_linear_51_166" x1="316.678" y1="30.1807" x2="316.678" y2="88.48" gradientUnits="userSpaceOnUse">
<stop stop-color="#0A2977"/>
<stop offset="1" stop-color="#051D61"/>
</linearGradient>
<linearGradient id="paint27_linear_51_166" x1="238.822" y1="29.2778" x2="249.051" y2="108.037" gradientUnits="userSpaceOnUse">
<stop stop-color="#96AAE2" stop-opacity="0.44"/>
<stop offset="1" stop-color="#0B44EA" stop-opacity="0.13"/>
</linearGradient>
<linearGradient id="paint28_linear_51_166" x1="317.658" y1="22.1274" x2="317.658" y2="53.8998" gradientUnits="userSpaceOnUse">
<stop stop-color="#0A2977"/>
<stop offset="1" stop-color="#051D61"/>
</linearGradient>
<linearGradient id="paint29_linear_51_166" x1="257.801" y1="21.6354" x2="261.785" y2="64.9155" gradientUnits="userSpaceOnUse">
<stop stop-color="#96AAE2" stop-opacity="0.44"/>
<stop offset="1" stop-color="#0B44EA" stop-opacity="0.13"/>
</linearGradient>
<linearGradient id="paint30_linear_51_166" x1="317.658" y1="0" x2="317.658" y2="44.822" gradientUnits="userSpaceOnUse">
<stop stop-color="#0A2977"/>
<stop offset="1" stop-color="#051D61"/>
</linearGradient>
<linearGradient id="paint31_linear_51_166" x1="257.801" y1="-0.694145" x2="265.665" y2="59.8581" gradientUnits="userSpaceOnUse">
<stop stop-color="#96AAE2" stop-opacity="0.44"/>
<stop offset="1" stop-color="#0B44EA" stop-opacity="0.13"/>
</linearGradient>
</defs>
</svg>
