<svg width="390" height="595" viewBox="0 0 390 595" fill="none" xmlns="http://www.w3.org/2000/svg">
<g opacity="0.2" filter="url(#filter0_f_128_773)">
<ellipse cx="181.64" cy="287.959" rx="159.86" ry="145.959" fill="#2065EB"/>
</g>
<g opacity="0.2" filter="url(#filter1_f_128_773)">
<ellipse cx="181.64" cy="358.622" rx="299.64" ry="65.2567" fill="#2065EB"/>
</g>
<g opacity="0.2" filter="url(#filter2_f_128_773)">
<ellipse cx="191.64" cy="387.849" rx="299.64" ry="65.2567" fill="#2065EB"/>
</g>
<mask id="path-4-inside-1_128_773" fill="white">
<path fill-rule="evenodd" clip-rule="evenodd" d="M256.333 359.308H134.667V391.292C134.667 391.298 134.667 391.304 134.667 391.31C134.667 391.317 134.667 391.323 134.667 391.329V391.599H134.671C135.084 404.045 162.16 414.087 195.5 414.087C228.84 414.087 255.916 404.045 256.329 391.599H256.333V359.308Z"/>
</mask>
<path fill-rule="evenodd" clip-rule="evenodd" d="M256.333 359.308H134.667V391.292C134.667 391.298 134.667 391.304 134.667 391.31C134.667 391.317 134.667 391.323 134.667 391.329V391.599H134.671C135.084 404.045 162.16 414.087 195.5 414.087C228.84 414.087 255.916 404.045 256.329 391.599H256.333V359.308Z" fill="url(#paint0_linear_128_773)"/>
<path d="M134.667 359.308V358.639H133.997V359.308H134.667ZM256.333 359.308H257.003V358.639H256.333V359.308ZM134.667 391.292L135.336 391.293V391.292H134.667ZM134.667 391.329H135.336L135.336 391.328L134.667 391.329ZM134.667 391.599H133.997V392.268H134.667V391.599ZM134.671 391.599L135.34 391.577L135.319 390.93H134.671V391.599ZM256.329 391.599V390.93H255.681L255.66 391.577L256.329 391.599ZM256.333 391.599V392.268H257.003V391.599H256.333ZM134.667 359.977H256.333V358.639H134.667V359.977ZM135.336 391.292V359.308H133.997V391.292H135.336ZM135.336 391.31C135.336 391.305 135.336 391.299 135.336 391.293L133.997 391.29C133.997 391.297 133.997 391.304 133.997 391.31H135.336ZM135.336 391.328C135.336 391.322 135.336 391.316 135.336 391.31H133.997C133.997 391.317 133.997 391.324 133.997 391.331L135.336 391.328ZM135.336 391.599V391.329H133.997V391.599H135.336ZM134.671 390.93H134.667V392.268H134.671V390.93ZM195.5 413.418C178.889 413.418 163.867 410.915 152.97 406.883C147.519 404.866 143.134 402.478 140.099 399.857C137.061 397.234 135.435 394.433 135.34 391.577L134.003 391.621C134.114 394.988 136.027 398.109 139.224 400.87C142.423 403.632 146.968 406.089 152.506 408.138C163.585 412.238 178.771 414.756 195.5 414.756V413.418ZM255.66 391.577C255.565 394.433 253.939 397.234 250.901 399.857C247.866 402.478 243.48 404.866 238.03 406.883C227.133 410.915 212.111 413.418 195.5 413.418V414.756C212.229 414.756 227.415 412.238 238.494 408.138C244.032 406.089 248.577 403.632 251.776 400.87C254.973 398.109 256.886 394.988 256.997 391.621L255.66 391.577ZM256.333 390.93H256.329V392.268H256.333V390.93ZM255.664 359.308V391.599H257.003V359.308H255.664Z" fill="url(#paint1_linear_128_773)" fill-opacity="0.5" mask="url(#path-4-inside-1_128_773)"/>
<ellipse cx="195.5" cy="359.596" rx="60.8333" ry="22.7765" fill="url(#paint2_linear_128_773)"/>
<path d="M255.999 359.596C255.999 362.611 254.368 365.523 251.331 368.211C248.294 370.9 243.881 373.336 238.398 375.388C227.436 379.493 212.269 382.038 195.5 382.038C178.731 382.038 163.564 379.493 152.602 375.388C147.119 373.336 142.706 370.9 139.669 368.211C136.632 365.523 135.001 362.611 135.001 359.596C135.001 356.582 136.632 353.67 139.669 350.981C142.706 348.293 147.119 345.857 152.602 343.804C163.564 339.7 178.731 337.154 195.5 337.154C212.269 337.154 227.436 339.7 238.398 343.804C243.881 345.857 248.294 348.293 251.331 350.981C254.368 353.67 255.999 356.582 255.999 359.596Z" stroke="url(#paint3_linear_128_773)" stroke-opacity="0.5" stroke-width="0.669194"/>
<mask id="path-8-inside-2_128_773" fill="white">
<path fill-rule="evenodd" clip-rule="evenodd" d="M134.667 359.308H13V391.31V391.599H13.0048C13.4172 404.045 40.4931 414.087 73.8333 414.087C107.174 414.087 134.249 404.045 134.662 391.599H134.667V391.31V359.308Z"/>
</mask>
<path fill-rule="evenodd" clip-rule="evenodd" d="M134.667 359.308H13V391.31V391.599H13.0048C13.4172 404.045 40.4931 414.087 73.8333 414.087C107.174 414.087 134.249 404.045 134.662 391.599H134.667V391.31V359.308Z" fill="url(#paint4_linear_128_773)"/>
<path d="M13 359.308V358.639H12.3308V359.308H13ZM134.667 359.308H135.336V358.639H134.667V359.308ZM13 391.599H12.3308V392.268H13V391.599ZM13.0048 391.599L13.6736 391.577L13.6522 390.93H13.0048V391.599ZM134.662 391.599V390.93H134.015L133.993 391.577L134.662 391.599ZM134.667 391.599V392.268H135.336V391.599H134.667ZM13 359.977H134.667V358.639H13V359.977ZM13.6692 391.31V359.308H12.3308V391.31H13.6692ZM13.6692 391.599V391.31H12.3308V391.599H13.6692ZM13.0048 390.93H13V392.268H13.0048V390.93ZM73.8333 413.418C57.2219 413.418 42.1999 410.915 31.3034 406.883C25.8528 404.866 21.4677 402.478 18.4321 399.857C15.3944 397.234 13.7683 394.433 13.6736 391.577L12.3359 391.621C12.4475 394.988 14.3605 398.109 17.5574 400.87C20.7564 403.632 25.3014 406.089 30.8389 408.138C41.9184 412.238 57.1046 414.756 73.8333 414.756V413.418ZM133.993 391.577C133.898 394.433 132.272 397.234 129.235 399.857C126.199 402.478 121.814 404.866 116.363 406.883C105.467 410.915 90.4448 413.418 73.8333 413.418V414.756C90.5621 414.756 105.748 412.238 116.828 408.138C122.365 406.089 126.91 403.632 130.109 400.87C133.306 398.109 135.219 394.988 135.331 391.621L133.993 391.577ZM134.667 390.93H134.662V392.268H134.667V390.93ZM133.997 391.31V391.599H135.336V391.31H133.997ZM133.997 359.308V391.31H135.336V359.308H133.997Z" fill="url(#paint5_linear_128_773)" fill-opacity="0.5" mask="url(#path-8-inside-2_128_773)"/>
<ellipse cx="73.8333" cy="359.596" rx="60.8333" ry="22.7765" fill="url(#paint6_linear_128_773)"/>
<path d="M134.332 359.596C134.332 362.611 132.702 365.523 129.664 368.211C126.628 370.9 122.214 373.336 116.732 375.388C105.769 379.493 90.6025 382.038 73.8333 382.038C57.0641 382.038 41.8973 379.493 30.935 375.388C25.4526 373.336 21.0392 370.9 18.0024 368.211C14.9651 365.523 13.3346 362.611 13.3346 359.596C13.3346 356.582 14.9651 353.67 18.0024 350.981C21.0392 348.293 25.4526 345.857 30.935 343.804C41.8973 339.7 57.0641 337.154 73.8333 337.154C90.6025 337.154 105.769 339.7 116.732 343.804C122.214 345.857 126.628 348.293 129.664 350.981C132.702 353.67 134.332 356.582 134.332 359.596Z" stroke="url(#paint7_linear_128_773)" stroke-opacity="0.5" stroke-width="0.669194"/>
<mask id="path-12-inside-3_128_773" fill="white">
<path fill-rule="evenodd" clip-rule="evenodd" d="M378 359.308H256.333V391.599H256.338C256.751 404.045 283.826 414.087 317.167 414.087C350.507 414.087 377.583 404.045 377.995 391.599H378V391.33C378 391.324 378 391.317 378 391.31C378 391.304 378 391.297 378 391.29V359.308Z"/>
</mask>
<path fill-rule="evenodd" clip-rule="evenodd" d="M378 359.308H256.333V391.599H256.338C256.751 404.045 283.826 414.087 317.167 414.087C350.507 414.087 377.583 404.045 377.995 391.599H378V391.33C378 391.324 378 391.317 378 391.31C378 391.304 378 391.297 378 391.29V359.308Z" fill="url(#paint8_linear_128_773)"/>
<path d="M256.333 359.308V358.639H255.664V359.308H256.333ZM378 359.308H378.669V358.639H378V359.308ZM256.333 391.599H255.664V392.268H256.333V391.599ZM256.338 391.599L257.007 391.577L256.986 390.93H256.338V391.599ZM377.995 391.599V390.93H377.348L377.326 391.577L377.995 391.599ZM378 391.599V392.268H378.669V391.599H378ZM378 391.33L377.331 391.329V391.33H378ZM378 391.29H377.331L377.331 391.292L378 391.29ZM256.333 359.977H378V358.639H256.333V359.977ZM257.003 391.599V359.308H255.664V391.599H257.003ZM256.338 390.93H256.333V392.268H256.338V390.93ZM317.167 413.418C300.555 413.418 285.533 410.915 274.637 406.883C269.186 404.866 264.801 402.478 261.765 399.857C258.728 397.234 257.102 394.433 257.007 391.577L255.669 391.621C255.781 394.988 257.694 398.109 260.891 400.87C264.09 403.632 268.635 406.089 274.172 408.138C285.252 412.238 300.438 414.756 317.167 414.756V413.418ZM377.326 391.577C377.232 394.433 375.606 397.234 372.568 399.857C369.532 402.478 365.147 404.866 359.697 406.883C348.8 410.915 333.778 413.418 317.167 413.418V414.756C333.895 414.756 349.082 412.238 360.161 408.138C365.699 406.089 370.244 403.632 373.443 400.87C376.64 398.109 378.553 394.988 378.664 391.621L377.326 391.577ZM378 390.93H377.995V392.268H378V390.93ZM377.331 391.33V391.599H378.669V391.33H377.331ZM377.331 391.31C377.331 391.317 377.331 391.323 377.331 391.329L378.669 391.332C378.669 391.325 378.669 391.318 378.669 391.31H377.331ZM377.331 391.292C377.331 391.298 377.331 391.304 377.331 391.31H378.669C378.669 391.303 378.669 391.296 378.669 391.289L377.331 391.292ZM377.331 359.308V391.29H378.669V359.308H377.331Z" fill="url(#paint9_linear_128_773)" fill-opacity="0.5" mask="url(#path-12-inside-3_128_773)"/>
<ellipse cx="317.167" cy="359.596" rx="60.8333" ry="22.7765" fill="url(#paint10_linear_128_773)"/>
<path d="M377.665 359.596C377.665 362.611 376.035 365.523 372.998 368.211C369.961 370.9 365.547 373.336 360.065 375.388C349.103 379.493 333.936 382.038 317.167 382.038C300.397 382.038 285.231 379.493 274.268 375.388C268.786 373.336 264.372 370.9 261.336 368.211C258.298 365.523 256.668 362.611 256.668 359.596C256.668 356.582 258.298 353.67 261.336 350.981C264.372 348.293 268.786 345.857 274.268 343.804C285.231 339.7 300.397 337.154 317.167 337.154C333.936 337.154 349.103 339.7 360.065 343.804C365.547 345.857 369.961 348.293 372.998 350.981C376.035 353.67 377.665 356.582 377.665 359.596Z" stroke="url(#paint11_linear_128_773)" stroke-opacity="0.5" stroke-width="0.669194"/>
<mask id="path-16-inside-4_128_773" fill="white">
<path fill-rule="evenodd" clip-rule="evenodd" d="M309.113 316.805H195.902V346.537C195.902 346.553 195.902 346.568 195.902 346.584C195.902 346.599 195.902 346.614 195.902 346.63V346.852H195.906C196.29 358.433 221.484 367.777 252.507 367.777C283.531 367.777 308.725 358.433 309.109 346.852H309.113V316.805Z"/>
</mask>
<path fill-rule="evenodd" clip-rule="evenodd" d="M309.113 316.805H195.902V346.537C195.902 346.553 195.902 346.568 195.902 346.584C195.902 346.599 195.902 346.614 195.902 346.63V346.852H195.906C196.29 358.433 221.484 367.777 252.507 367.777C283.531 367.777 308.725 358.433 309.109 346.852H309.113V316.805Z" fill="url(#paint12_linear_128_773)"/>
<path d="M195.902 316.805V316.182H195.279V316.805H195.902ZM309.113 316.805H309.736V316.182H309.113V316.805ZM195.902 346.537L196.525 346.541V346.537H195.902ZM195.902 346.63H196.525L196.525 346.626L195.902 346.63ZM195.902 346.852H195.279V347.474H195.902V346.852ZM195.906 346.852L196.529 346.831L196.509 346.229H195.906V346.852ZM309.109 346.852V346.229H308.506L308.486 346.831L309.109 346.852ZM309.113 346.852V347.474H309.736V346.852H309.113ZM195.902 317.428H309.113V316.182H195.902V317.428ZM196.525 346.537V316.805H195.279V346.537H196.525ZM196.525 346.584C196.525 346.569 196.525 346.555 196.525 346.541L195.279 346.534C195.279 346.55 195.279 346.567 195.279 346.584H196.525ZM196.525 346.626C196.525 346.612 196.525 346.598 196.525 346.584H195.279C195.279 346.6 195.279 346.617 195.279 346.633L196.525 346.626ZM196.525 346.852V346.63H195.279V346.852H196.525ZM195.906 346.229H195.902V347.474H195.906V346.229ZM252.507 367.154C237.05 367.154 223.072 364.826 212.933 361.073C207.861 359.197 203.781 356.975 200.956 354.536C198.13 352.095 196.617 349.489 196.529 346.831L195.284 346.872C195.388 350.005 197.168 352.91 200.143 355.478C203.119 358.049 207.348 360.335 212.501 362.241C222.81 366.057 236.941 368.4 252.507 368.4V367.154ZM308.486 346.831C308.398 349.489 306.885 352.095 304.059 354.536C301.234 356.975 297.154 359.197 292.082 361.073C281.943 364.826 267.965 367.154 252.507 367.154V368.4C268.074 368.4 282.205 366.057 292.514 362.241C297.667 360.335 301.896 358.049 304.872 355.478C307.847 352.91 309.627 350.005 309.731 346.872L308.486 346.831ZM309.113 346.229H309.109V347.474H309.113V346.229ZM308.49 316.805V346.852H309.736V316.805H308.49Z" fill="url(#paint13_linear_128_773)" fill-opacity="0.5" mask="url(#path-16-inside-4_128_773)"/>
<ellipse cx="252.508" cy="317.073" rx="56.6055" ry="21.1935" fill="url(#paint14_linear_128_773)"/>
<path d="M308.802 317.073C308.802 319.878 307.285 322.588 304.459 325.09C301.633 327.591 297.526 329.858 292.425 331.768C282.224 335.587 268.111 337.956 252.508 337.956C236.904 337.956 222.791 335.587 212.591 331.768C207.489 329.858 203.383 327.591 200.557 325.09C197.731 322.588 196.214 319.878 196.214 317.073C196.214 314.268 197.731 311.559 200.557 309.057C203.383 306.556 207.489 304.289 212.591 302.379C222.791 298.56 236.904 296.191 252.508 296.191C268.111 296.191 282.224 298.56 292.425 302.379C297.526 304.289 301.633 306.556 304.459 309.057C307.285 311.559 308.802 314.268 308.802 317.073Z" stroke="url(#paint15_linear_128_773)" stroke-opacity="0.5" stroke-width="0.622686"/>
<mask id="path-20-inside-5_128_773" fill="white">
<path fill-rule="evenodd" clip-rule="evenodd" d="M194.829 316.805H81.6178V346.852H81.6224C82.0059 358.433 107.2 367.777 138.223 367.777C169.247 367.777 194.441 358.433 194.825 346.852H194.829V346.625C194.829 346.611 194.829 346.597 194.829 346.584C194.829 346.57 194.829 346.556 194.829 346.542V316.805Z"/>
</mask>
<path fill-rule="evenodd" clip-rule="evenodd" d="M194.829 316.805H81.6178V346.852H81.6224C82.0059 358.433 107.2 367.777 138.223 367.777C169.247 367.777 194.441 358.433 194.825 346.852H194.829V346.625C194.829 346.611 194.829 346.597 194.829 346.584C194.829 346.57 194.829 346.556 194.829 346.542V316.805Z" fill="url(#paint16_linear_128_773)"/>
<path d="M81.6178 316.805V316.182H80.9951V316.805H81.6178ZM194.829 316.805H195.452V316.182H194.829V316.805ZM81.6178 346.852H80.9951V347.474H81.6178V346.852ZM81.6224 346.852L82.2447 346.831L82.2248 346.229H81.6224V346.852ZM194.825 346.852V346.229H194.222L194.202 346.831L194.825 346.852ZM194.829 346.852V347.474H195.452V346.852H194.829ZM194.829 346.625L194.206 346.622V346.625H194.829ZM194.829 346.542H194.206L194.206 346.545L194.829 346.542ZM81.6178 317.428H194.829V316.182H81.6178V317.428ZM82.2405 346.852V316.805H80.9951V346.852H82.2405ZM81.6224 346.229H81.6178V347.474H81.6224V346.229ZM138.223 367.154C122.766 367.154 108.788 364.826 98.6491 361.073C93.5774 359.197 89.497 356.975 86.6724 354.536C83.8458 352.095 82.3327 349.489 82.2447 346.831L81 346.872C81.1038 350.005 82.8838 352.91 85.8585 355.478C88.8351 358.049 93.0642 360.335 98.2169 362.241C108.526 366.057 122.657 368.4 138.223 368.4V367.154ZM194.202 346.831C194.114 349.489 192.601 352.095 189.775 354.536C186.95 356.975 182.87 359.197 177.798 361.073C167.659 364.826 153.681 367.154 138.223 367.154V368.4C153.79 368.4 167.92 366.057 178.23 362.241C183.383 360.335 187.612 358.049 190.588 355.478C193.563 352.91 195.343 350.005 195.447 346.872L194.202 346.831ZM194.829 346.229H194.825V347.474H194.829V346.229ZM194.206 346.625V346.852H195.452V346.625H194.206ZM194.206 346.584C194.206 346.596 194.206 346.609 194.206 346.622L195.452 346.628C195.452 346.613 195.452 346.599 195.452 346.584H194.206ZM194.206 346.545C194.206 346.558 194.206 346.571 194.206 346.584H195.452C195.452 346.569 195.452 346.554 195.452 346.539L194.206 346.545ZM194.206 316.805V346.542H195.452V316.805H194.206Z" fill="url(#paint17_linear_128_773)" fill-opacity="0.5" mask="url(#path-20-inside-5_128_773)"/>
<ellipse cx="138.223" cy="317.073" rx="56.6055" ry="21.1935" fill="url(#paint18_linear_128_773)"/>
<path d="M194.517 317.073C194.517 319.878 193 322.588 190.174 325.09C187.348 327.591 183.242 329.858 178.14 331.768C167.94 335.587 153.827 337.956 138.223 337.956C122.619 337.956 108.507 335.587 98.3062 331.768C93.2048 329.858 89.0981 327.591 86.2724 325.09C83.4463 322.588 81.929 319.878 81.929 317.073C81.929 314.268 83.4463 311.559 86.2724 309.057C89.0981 306.556 93.2048 304.289 98.3062 302.379C108.507 298.56 122.619 296.191 138.223 296.191C153.827 296.191 167.94 298.56 178.14 302.379C183.242 304.289 187.348 306.556 190.174 309.057C193 311.559 194.517 314.268 194.517 317.073Z" stroke="url(#paint19_linear_128_773)" stroke-opacity="0.5" stroke-width="0.622686"/>
<mask id="path-24-inside-6_128_773" fill="white">
<path fill-rule="evenodd" clip-rule="evenodd" d="M249.196 279.086H142.163V307.493H142.167C142.53 318.442 166.35 327.276 195.68 327.276C225.009 327.276 248.829 318.442 249.192 307.493H249.196V307.288C249.196 307.272 249.196 307.255 249.196 307.239C249.196 307.222 249.196 307.206 249.196 307.189V279.086Z"/>
</mask>
<path fill-rule="evenodd" clip-rule="evenodd" d="M249.196 279.086H142.163V307.493H142.167C142.53 318.442 166.35 327.276 195.68 327.276C225.009 327.276 248.829 318.442 249.192 307.493H249.196V307.288C249.196 307.272 249.196 307.255 249.196 307.239C249.196 307.222 249.196 307.206 249.196 307.189V279.086Z" fill="url(#paint20_linear_128_773)"/>
<path d="M142.163 279.086V278.497H141.574V279.086H142.163ZM249.196 279.086H249.785V278.497H249.196V279.086ZM142.163 307.493H141.574V308.082H142.163V307.493ZM142.167 307.493L142.756 307.473L142.737 306.904H142.167V307.493ZM249.192 307.493V306.904H248.622L248.603 307.473L249.192 307.493ZM249.196 307.493V308.082H249.785V307.493H249.196ZM249.196 307.288L248.607 307.285V307.288H249.196ZM249.196 307.189H248.607L248.607 307.193L249.196 307.189ZM142.163 279.675H249.196V278.497H142.163V279.675ZM142.752 307.493V279.086H141.574V307.493H142.752ZM142.167 306.904H142.163V308.082H142.167V306.904ZM195.68 326.687C181.066 326.687 167.851 324.486 158.265 320.938C153.47 319.164 149.612 317.063 146.942 314.757C144.27 312.45 142.839 309.986 142.756 307.473L141.579 307.512C141.677 310.474 143.36 313.22 146.172 315.649C148.987 318.079 152.985 320.24 157.856 322.042C167.603 325.649 180.963 327.865 195.68 327.865V326.687ZM248.603 307.473C248.52 309.986 247.089 312.45 244.417 314.757C241.747 317.063 237.889 319.164 233.094 320.938C223.508 324.486 210.293 326.687 195.68 326.687V327.865C210.396 327.865 223.756 325.649 233.503 322.042C238.374 320.24 242.372 318.079 245.187 315.649C247.999 313.22 249.682 310.474 249.78 307.512L248.603 307.473ZM249.196 306.904H249.192V308.082H249.196V306.904ZM248.607 307.288V307.493H249.785V307.288H248.607ZM248.607 307.239C248.607 307.254 248.607 307.269 248.607 307.285L249.785 307.292C249.785 307.274 249.785 307.257 249.785 307.239H248.607ZM248.607 307.193C248.607 307.208 248.607 307.224 248.607 307.239H249.785C249.785 307.221 249.785 307.203 249.785 307.186L248.607 307.193ZM248.607 279.086V307.189H249.785V279.086H248.607Z" fill="url(#paint21_linear_128_773)" fill-opacity="0.5" mask="url(#path-24-inside-6_128_773)"/>
<ellipse cx="195.679" cy="279.339" rx="53.5165" ry="20.037" fill="url(#paint22_linear_128_773)"/>
<path d="M248.901 279.339C248.901 281.991 247.467 284.553 244.795 286.918C242.123 289.283 238.241 291.426 233.418 293.232C223.774 296.843 210.431 299.082 195.679 299.082C180.927 299.082 167.584 296.843 157.941 293.232C153.118 291.426 149.235 289.283 146.563 286.918C143.892 284.553 142.457 281.991 142.457 279.339C142.457 276.687 143.892 274.126 146.563 271.76C149.235 269.395 153.118 267.252 157.941 265.447C167.584 261.836 180.927 259.597 195.679 259.597C210.431 259.597 223.774 261.836 233.418 265.447C238.241 267.252 242.123 269.395 244.795 271.76C247.467 274.126 248.901 276.687 248.901 279.339Z" stroke="url(#paint23_linear_128_773)" stroke-opacity="0.5" stroke-width="0.588705"/>
<mask id="path-28-inside-7_128_773" fill="white">
<path fill-rule="evenodd" clip-rule="evenodd" d="M240.496 247.999H150.71V271.828H150.713C151.018 281.013 170.999 288.423 195.603 288.423C220.206 288.423 240.187 281.013 240.492 271.828H240.496V271.646C240.496 271.636 240.496 271.625 240.496 271.615C240.496 271.604 240.496 271.594 240.496 271.583V247.999Z"/>
</mask>
<path fill-rule="evenodd" clip-rule="evenodd" d="M240.496 247.999H150.71V271.828H150.713C151.018 281.013 170.999 288.423 195.603 288.423C220.206 288.423 240.187 281.013 240.492 271.828H240.496V271.646C240.496 271.636 240.496 271.625 240.496 271.615C240.496 271.604 240.496 271.594 240.496 271.583V247.999Z" fill="url(#paint24_linear_128_773)"/>
<path d="M150.71 247.999V247.505H150.216V247.999H150.71ZM240.496 247.999H240.989V247.505H240.496V247.999ZM150.71 271.828H150.216V272.322H150.71V271.828ZM150.713 271.828L151.207 271.812L151.191 271.334H150.713V271.828ZM240.492 271.828V271.334H240.014L239.999 271.812L240.492 271.828ZM240.496 271.828V272.322H240.989V271.828H240.496ZM240.496 271.646L240.002 271.644V271.646H240.496ZM240.496 271.583H240.002L240.002 271.586L240.496 271.583ZM150.71 248.492H240.496V247.505H150.71V248.492ZM151.203 271.828V247.999H150.216V271.828H151.203ZM150.713 271.334H150.71V272.322H150.713V271.334ZM195.603 287.929C183.344 287.929 172.259 286.082 164.217 283.107C160.195 281.618 156.959 279.856 154.719 277.922C152.477 275.986 151.277 273.92 151.207 271.812L150.22 271.844C150.302 274.329 151.714 276.633 154.073 278.67C156.434 280.708 159.788 282.521 163.875 284.033C172.051 287.059 183.258 288.917 195.603 288.917V287.929ZM239.999 271.812C239.929 273.92 238.728 275.986 236.487 277.922C234.246 279.856 231.01 281.618 226.988 283.107C218.947 286.082 207.861 287.929 195.603 287.929V288.917C207.948 288.917 219.154 287.059 227.331 284.033C231.417 282.521 234.771 280.708 237.132 278.67C239.491 276.633 240.903 274.329 240.986 271.844L239.999 271.812ZM240.496 271.334H240.492V272.322H240.496V271.334ZM240.002 271.646V271.828H240.989V271.646H240.002ZM240.002 271.615C240.002 271.625 240.002 271.634 240.002 271.644L240.989 271.649C240.989 271.637 240.989 271.626 240.989 271.615H240.002ZM240.002 271.586C240.002 271.595 240.002 271.605 240.002 271.615H240.989C240.989 271.604 240.989 271.592 240.989 271.581L240.002 271.586ZM240.002 247.999V271.583H240.989V247.999H240.002Z" fill="url(#paint25_linear_128_773)" fill-opacity="0.5" mask="url(#path-28-inside-7_128_773)"/>
<ellipse cx="195.602" cy="248.211" rx="44.893" ry="16.8083" fill="url(#paint26_linear_128_773)"/>
<path d="M240.249 248.211C240.249 250.436 239.045 252.585 236.804 254.569C234.563 256.553 231.306 258.35 227.26 259.865C219.17 262.894 207.978 264.772 195.602 264.772C183.227 264.772 172.035 262.894 163.945 259.865C159.899 258.35 156.642 256.553 154.401 254.569C152.16 252.585 150.956 250.436 150.956 248.211C150.956 245.986 152.16 243.838 154.401 241.853C156.642 239.87 159.899 238.072 163.945 236.557C172.035 233.528 183.227 231.65 195.602 231.65C207.978 231.65 219.17 233.528 227.26 236.557C231.306 238.072 234.563 239.87 236.804 241.853C239.045 243.838 240.249 245.986 240.249 248.211Z" stroke="url(#paint27_linear_128_773)" stroke-opacity="0.5" stroke-width="0.493843"/>
<mask id="path-32-inside-8_128_773" fill="white">
<path fill-rule="evenodd" clip-rule="evenodd" d="M230.683 226.759H161.653V245.08H161.656C161.89 252.141 177.252 257.839 196.168 257.839C215.084 257.839 230.446 252.141 230.68 245.08H230.683V244.946C230.683 244.936 230.683 244.926 230.683 244.916C230.683 244.906 230.683 244.896 230.683 244.886V226.759Z"/>
</mask>
<path fill-rule="evenodd" clip-rule="evenodd" d="M230.683 226.759H161.653V245.08H161.656C161.89 252.141 177.252 257.839 196.168 257.839C215.084 257.839 230.446 252.141 230.68 245.08H230.683V244.946C230.683 244.936 230.683 244.926 230.683 244.916C230.683 244.906 230.683 244.896 230.683 244.886V226.759Z" fill="url(#paint28_linear_128_773)"/>
<path d="M161.653 226.759V226.38H161.273V226.759H161.653ZM230.683 226.759H231.062V226.38H230.683V226.759ZM161.653 245.08H161.273V245.46H161.653V245.08ZM161.656 245.08L162.035 245.067L162.023 244.7H161.656V245.08ZM230.68 245.08V244.7H230.313L230.301 245.067L230.68 245.08ZM230.683 245.08V245.46H231.062V245.08H230.683ZM230.683 244.946L230.303 244.944V244.946H230.683ZM230.683 244.886H230.303L230.303 244.888L230.683 244.886ZM161.653 227.139H230.683V226.38H161.653V227.139ZM162.033 245.08V226.759H161.273V245.08H162.033ZM161.656 244.7H161.653V245.46H161.656V244.7ZM196.168 257.459C186.743 257.459 178.22 256.039 172.038 253.751C168.946 252.607 166.458 251.252 164.735 249.765C163.012 248.277 162.089 246.688 162.035 245.067L161.276 245.093C161.34 247.003 162.425 248.774 164.239 250.34C166.054 251.907 168.633 253.301 171.775 254.463C178.061 256.79 186.677 258.218 196.168 258.218V257.459ZM230.301 245.067C230.247 246.688 229.324 248.277 227.601 249.765C225.878 251.252 223.39 252.607 220.298 253.751C214.115 256.039 205.593 257.459 196.168 257.459V258.218C205.659 258.218 214.275 256.79 220.561 254.463C223.703 253.301 226.282 251.907 228.097 250.34C229.911 248.774 230.996 247.003 231.059 245.093L230.301 245.067ZM230.683 244.7H230.68V245.46H230.683V244.7ZM230.303 244.946V245.08H231.062V244.946H230.303ZM230.303 244.916C230.303 244.925 230.303 244.935 230.303 244.944L231.062 244.948C231.062 244.938 231.062 244.927 231.062 244.916H230.303ZM230.303 244.888C230.303 244.898 230.303 244.907 230.303 244.916H231.062C231.062 244.905 231.062 244.894 231.062 244.884L230.303 244.888ZM230.303 226.759V244.886H231.062V226.759H230.303Z" fill="url(#paint29_linear_128_773)" fill-opacity="0.5" mask="url(#path-32-inside-8_128_773)"/>
<ellipse cx="196.168" cy="226.923" rx="34.5148" ry="12.9226" fill="url(#paint30_linear_128_773)"/>
<path d="M230.493 226.923C230.493 228.633 229.568 230.285 227.844 231.811C226.121 233.336 223.617 234.718 220.507 235.882C214.287 238.211 205.682 239.655 196.168 239.655C186.653 239.655 178.048 238.211 171.829 235.882C168.718 234.718 166.214 233.336 164.491 231.811C162.768 230.285 161.843 228.633 161.843 226.923C161.843 225.212 162.768 223.56 164.491 222.035C166.214 220.51 168.718 219.127 171.829 217.963C178.048 215.634 186.653 214.19 196.168 214.19C205.682 214.19 214.287 215.634 220.507 217.963C223.617 219.127 226.121 220.51 227.844 222.035C229.568 223.56 230.493 225.212 230.493 226.923Z" stroke="url(#paint31_linear_128_773)" stroke-opacity="0.5" stroke-width="0.379678"/>
<defs>
<filter id="filter0_f_128_773" x="-119.488" y="0.731369" width="602.256" height="574.455" filterUnits="userSpaceOnUse" color-interpolation-filters="sRGB">
<feFlood flood-opacity="0" result="BackgroundImageFix"/>
<feBlend mode="normal" in="SourceGraphic" in2="BackgroundImageFix" result="shape"/>
<feGaussianBlur stdDeviation="70.6343" result="effect1_foregroundBlur_128_773"/>
</filter>
<filter id="filter1_f_128_773" x="-259.269" y="152.097" width="881.818" height="413.05" filterUnits="userSpaceOnUse" color-interpolation-filters="sRGB">
<feFlood flood-opacity="0" result="BackgroundImageFix"/>
<feBlend mode="normal" in="SourceGraphic" in2="BackgroundImageFix" result="shape"/>
<feGaussianBlur stdDeviation="70.6343" result="effect1_foregroundBlur_128_773"/>
</filter>
<filter id="filter2_f_128_773" x="-249.269" y="181.324" width="881.818" height="413.05" filterUnits="userSpaceOnUse" color-interpolation-filters="sRGB">
<feFlood flood-opacity="0" result="BackgroundImageFix"/>
<feBlend mode="normal" in="SourceGraphic" in2="BackgroundImageFix" result="shape"/>
<feGaussianBlur stdDeviation="70.6343" result="effect1_foregroundBlur_128_773"/>
</filter>
<linearGradient id="paint0_linear_128_773" x1="195.5" y1="359.308" x2="195.5" y2="391.599" gradientUnits="userSpaceOnUse">
<stop stop-color="#0A2977"/>
<stop offset="1" stop-color="#051D61"/>
</linearGradient>
<linearGradient id="paint1_linear_128_773" x1="134.667" y1="358.808" x2="138.716" y2="402.794" gradientUnits="userSpaceOnUse">
<stop stop-color="#96AAE2" stop-opacity="0.44"/>
<stop offset="1" stop-color="#0B44EA" stop-opacity="0.13"/>
</linearGradient>
<linearGradient id="paint2_linear_128_773" x1="195.5" y1="336.82" x2="195.5" y2="382.373" gradientUnits="userSpaceOnUse">
<stop stop-color="#0A2977"/>
<stop offset="1" stop-color="#051D61"/>
</linearGradient>
<linearGradient id="paint3_linear_128_773" x1="134.667" y1="336.114" x2="142.659" y2="397.654" gradientUnits="userSpaceOnUse">
<stop stop-color="#96AAE2" stop-opacity="0.44"/>
<stop offset="1" stop-color="#0B44EA" stop-opacity="0.13"/>
</linearGradient>
<linearGradient id="paint4_linear_128_773" x1="73.8333" y1="359.308" x2="73.8333" y2="391.599" gradientUnits="userSpaceOnUse">
<stop stop-color="#0A2977"/>
<stop offset="1" stop-color="#051D61"/>
</linearGradient>
<linearGradient id="paint5_linear_128_773" x1="13" y1="358.808" x2="17.0494" y2="402.794" gradientUnits="userSpaceOnUse">
<stop stop-color="#96AAE2" stop-opacity="0.44"/>
<stop offset="1" stop-color="#0B44EA" stop-opacity="0.13"/>
</linearGradient>
<linearGradient id="paint6_linear_128_773" x1="73.8333" y1="336.82" x2="73.8333" y2="382.373" gradientUnits="userSpaceOnUse">
<stop stop-color="#0A2977"/>
<stop offset="1" stop-color="#051D61"/>
</linearGradient>
<linearGradient id="paint7_linear_128_773" x1="13" y1="336.114" x2="20.9923" y2="397.654" gradientUnits="userSpaceOnUse">
<stop stop-color="#96AAE2" stop-opacity="0.44"/>
<stop offset="1" stop-color="#0B44EA" stop-opacity="0.13"/>
</linearGradient>
<linearGradient id="paint8_linear_128_773" x1="317.167" y1="359.308" x2="317.167" y2="391.599" gradientUnits="userSpaceOnUse">
<stop stop-color="#0A2977"/>
<stop offset="1" stop-color="#051D61"/>
</linearGradient>
<linearGradient id="paint9_linear_128_773" x1="256.333" y1="358.808" x2="260.383" y2="402.794" gradientUnits="userSpaceOnUse">
<stop stop-color="#96AAE2" stop-opacity="0.44"/>
<stop offset="1" stop-color="#0B44EA" stop-opacity="0.13"/>
</linearGradient>
<linearGradient id="paint10_linear_128_773" x1="317.167" y1="336.82" x2="317.167" y2="382.373" gradientUnits="userSpaceOnUse">
<stop stop-color="#0A2977"/>
<stop offset="1" stop-color="#051D61"/>
</linearGradient>
<linearGradient id="paint11_linear_128_773" x1="256.333" y1="336.114" x2="264.326" y2="397.654" gradientUnits="userSpaceOnUse">
<stop stop-color="#96AAE2" stop-opacity="0.44"/>
<stop offset="1" stop-color="#0B44EA" stop-opacity="0.13"/>
</linearGradient>
<linearGradient id="paint12_linear_128_773" x1="252.507" y1="316.805" x2="252.507" y2="346.852" gradientUnits="userSpaceOnUse">
<stop stop-color="#0A2977"/>
<stop offset="1" stop-color="#051D61"/>
</linearGradient>
<linearGradient id="paint13_linear_128_773" x1="195.902" y1="316.34" x2="199.67" y2="357.269" gradientUnits="userSpaceOnUse">
<stop stop-color="#96AAE2" stop-opacity="0.44"/>
<stop offset="1" stop-color="#0B44EA" stop-opacity="0.13"/>
</linearGradient>
<linearGradient id="paint14_linear_128_773" x1="252.508" y1="295.88" x2="252.508" y2="338.267" gradientUnits="userSpaceOnUse">
<stop stop-color="#0A2977"/>
<stop offset="1" stop-color="#051D61"/>
</linearGradient>
<linearGradient id="paint15_linear_128_773" x1="195.902" y1="295.223" x2="203.339" y2="352.486" gradientUnits="userSpaceOnUse">
<stop stop-color="#96AAE2" stop-opacity="0.44"/>
<stop offset="1" stop-color="#0B44EA" stop-opacity="0.13"/>
</linearGradient>
<linearGradient id="paint16_linear_128_773" x1="138.223" y1="316.805" x2="138.223" y2="346.852" gradientUnits="userSpaceOnUse">
<stop stop-color="#0A2977"/>
<stop offset="1" stop-color="#051D61"/>
</linearGradient>
<linearGradient id="paint17_linear_128_773" x1="81.6178" y1="316.34" x2="85.3858" y2="357.269" gradientUnits="userSpaceOnUse">
<stop stop-color="#96AAE2" stop-opacity="0.44"/>
<stop offset="1" stop-color="#0B44EA" stop-opacity="0.13"/>
</linearGradient>
<linearGradient id="paint18_linear_128_773" x1="138.223" y1="295.88" x2="138.223" y2="338.267" gradientUnits="userSpaceOnUse">
<stop stop-color="#0A2977"/>
<stop offset="1" stop-color="#051D61"/>
</linearGradient>
<linearGradient id="paint19_linear_128_773" x1="81.6177" y1="295.223" x2="89.0545" y2="352.486" gradientUnits="userSpaceOnUse">
<stop stop-color="#96AAE2" stop-opacity="0.44"/>
<stop offset="1" stop-color="#0B44EA" stop-opacity="0.13"/>
</linearGradient>
<linearGradient id="paint20_linear_128_773" x1="195.679" y1="279.086" x2="195.679" y2="307.493" gradientUnits="userSpaceOnUse">
<stop stop-color="#0A2977"/>
<stop offset="1" stop-color="#051D61"/>
</linearGradient>
<linearGradient id="paint21_linear_128_773" x1="142.163" y1="278.646" x2="145.725" y2="317.341" gradientUnits="userSpaceOnUse">
<stop stop-color="#96AAE2" stop-opacity="0.44"/>
<stop offset="1" stop-color="#0B44EA" stop-opacity="0.13"/>
</linearGradient>
<linearGradient id="paint22_linear_128_773" x1="195.679" y1="259.302" x2="195.679" y2="299.376" gradientUnits="userSpaceOnUse">
<stop stop-color="#0A2977"/>
<stop offset="1" stop-color="#051D61"/>
</linearGradient>
<linearGradient id="paint23_linear_128_773" x1="142.163" y1="258.682" x2="149.194" y2="312.82" gradientUnits="userSpaceOnUse">
<stop stop-color="#96AAE2" stop-opacity="0.44"/>
<stop offset="1" stop-color="#0B44EA" stop-opacity="0.13"/>
</linearGradient>
<linearGradient id="paint24_linear_128_773" x1="195.603" y1="247.999" x2="195.603" y2="271.828" gradientUnits="userSpaceOnUse">
<stop stop-color="#0A2977"/>
<stop offset="1" stop-color="#051D61"/>
</linearGradient>
<linearGradient id="paint25_linear_128_773" x1="150.71" y1="247.629" x2="153.698" y2="280.089" gradientUnits="userSpaceOnUse">
<stop stop-color="#96AAE2" stop-opacity="0.44"/>
<stop offset="1" stop-color="#0B44EA" stop-opacity="0.13"/>
</linearGradient>
<linearGradient id="paint26_linear_128_773" x1="195.602" y1="231.403" x2="195.602" y2="265.019" gradientUnits="userSpaceOnUse">
<stop stop-color="#0A2977"/>
<stop offset="1" stop-color="#051D61"/>
</linearGradient>
<linearGradient id="paint27_linear_128_773" x1="150.71" y1="230.882" x2="156.608" y2="276.296" gradientUnits="userSpaceOnUse">
<stop stop-color="#96AAE2" stop-opacity="0.44"/>
<stop offset="1" stop-color="#0B44EA" stop-opacity="0.13"/>
</linearGradient>
<linearGradient id="paint28_linear_128_773" x1="196.168" y1="226.759" x2="196.168" y2="245.08" gradientUnits="userSpaceOnUse">
<stop stop-color="#0A2977"/>
<stop offset="1" stop-color="#051D61"/>
</linearGradient>
<linearGradient id="paint29_linear_128_773" x1="161.653" y1="226.476" x2="163.95" y2="251.432" gradientUnits="userSpaceOnUse">
<stop stop-color="#96AAE2" stop-opacity="0.44"/>
<stop offset="1" stop-color="#0B44EA" stop-opacity="0.13"/>
</linearGradient>
<linearGradient id="paint30_linear_128_773" x1="196.168" y1="214" x2="196.168" y2="239.845" gradientUnits="userSpaceOnUse">
<stop stop-color="#0A2977"/>
<stop offset="1" stop-color="#051D61"/>
</linearGradient>
<linearGradient id="paint31_linear_128_773" x1="161.653" y1="213.6" x2="166.187" y2="248.515" gradientUnits="userSpaceOnUse">
<stop stop-color="#96AAE2" stop-opacity="0.44"/>
<stop offset="1" stop-color="#0B44EA" stop-opacity="0.13"/>
</linearGradient>
</defs>
</svg>
