<svg width="1032" height="773" viewBox="0 0 1032 773" fill="none" xmlns="http://www.w3.org/2000/svg">
<g opacity="0.2" filter="url(#filter0_f_235_20)">
<ellipse cx="571" cy="372" rx="232" ry="189" fill="#2065EB"/>
</g>
<g opacity="0.2" filter="url(#filter1_f_235_20)">
<ellipse cx="571" cy="505.5" rx="388" ry="84.5" fill="#2065EB"/>
</g>
<mask id="path-3-inside-1_235_20" fill="white">
<path fill-rule="evenodd" clip-rule="evenodd" d="M677 452H466V507.5V508H466.008C466.723 529.585 513.68 547 571.5 547C629.32 547 676.277 529.585 676.992 508H677V507.5V452Z"/>
</mask>
<path fill-rule="evenodd" clip-rule="evenodd" d="M677 452H466V507.5V508H466.008C466.723 529.585 513.68 547 571.5 547C629.32 547 676.277 529.585 676.992 508H677V507.5V452Z" fill="url(#paint0_linear_235_20)"/>
<path d="M466 452V450.839H464.839V452H466ZM677 452H678.161V450.839H677V452ZM466 508H464.839V509.161H466V508ZM466.008 508L467.168 507.962L467.131 506.839H466.008V508ZM676.992 508V506.839H675.869L675.832 507.962L676.992 508ZM677 508V509.161H678.161V508H677ZM466 453.161H677V450.839H466V453.161ZM467.161 507.5V452H464.839V507.5H467.161ZM467.161 508V507.5H464.839V508H467.161ZM466.008 506.839H466V509.161H466.008V506.839ZM571.5 545.839C542.692 545.839 516.64 541.499 497.743 534.506C488.29 531.008 480.685 526.867 475.421 522.321C470.152 517.773 467.332 512.915 467.168 507.962L464.848 508.038C465.042 513.877 468.359 519.291 473.904 524.078C479.451 528.869 487.334 533.129 496.937 536.683C516.152 543.793 542.488 548.161 571.5 548.161V545.839ZM675.832 507.962C675.668 512.915 672.848 517.773 667.579 522.321C662.315 526.867 654.71 531.008 645.257 534.506C626.36 541.499 600.308 545.839 571.5 545.839V548.161C600.512 548.161 626.848 543.793 646.063 536.683C655.666 533.129 663.549 528.869 669.096 524.078C674.641 519.291 677.958 513.877 678.152 508.038L675.832 507.962ZM677 506.839H676.992V509.161H677V506.839ZM675.839 507.5V508H678.161V507.5H675.839ZM675.839 452V507.5H678.161V452H675.839Z" fill="url(#paint1_linear_235_20)" fill-opacity="0.5" mask="url(#path-3-inside-1_235_20)"/>
<ellipse cx="571.5" cy="452.5" rx="105.5" ry="39.5" fill="url(#paint2_linear_235_20)"/>
<path d="M676.42 452.5C676.42 457.728 673.592 462.778 668.325 467.441C663.058 472.103 655.404 476.327 645.896 479.887C626.885 487.005 600.582 491.42 571.5 491.42C542.418 491.42 516.115 487.005 497.104 479.887C487.596 476.327 479.942 472.103 474.675 467.441C469.408 462.778 466.58 457.728 466.58 452.5C466.58 447.272 469.408 442.222 474.675 437.559C479.942 432.897 487.596 428.673 497.104 425.113C516.115 417.995 542.418 413.58 571.5 413.58C600.582 413.58 626.885 417.995 645.896 425.113C655.404 428.673 663.058 432.897 668.325 437.559C673.592 442.222 676.42 447.272 676.42 452.5Z" stroke="url(#paint3_linear_235_20)" stroke-opacity="0.5" stroke-width="1.16055"/>
<mask id="path-7-inside-2_235_20" fill="white">
<path fill-rule="evenodd" clip-rule="evenodd" d="M466 452H255V507.5V508H255.008C255.723 529.585 302.68 547 360.5 547C418.32 547 465.277 529.585 465.992 508H466V507.5V452Z"/>
</mask>
<path fill-rule="evenodd" clip-rule="evenodd" d="M466 452H255V507.5V508H255.008C255.723 529.585 302.68 547 360.5 547C418.32 547 465.277 529.585 465.992 508H466V507.5V452Z" fill="url(#paint4_linear_235_20)"/>
<path d="M255 452V450.839H253.839V452H255ZM466 452H467.161V450.839H466V452ZM255 508H253.839V509.161H255V508ZM255.008 508L256.168 507.962L256.131 506.839H255.008V508ZM465.992 508V506.839H464.869L464.832 507.962L465.992 508ZM466 508V509.161H467.161V508H466ZM255 453.161H466V450.839H255V453.161ZM256.161 507.5V452H253.839V507.5H256.161ZM256.161 508V507.5H253.839V508H256.161ZM255.008 506.839H255V509.161H255.008V506.839ZM360.5 545.839C331.692 545.839 305.64 541.499 286.743 534.506C277.29 531.008 269.685 526.867 264.421 522.321C259.152 517.773 256.332 512.915 256.168 507.962L253.848 508.038C254.042 513.877 257.359 519.291 262.904 524.078C268.451 528.869 276.334 533.129 285.937 536.683C305.152 543.793 331.488 548.161 360.5 548.161V545.839ZM464.832 507.962C464.668 512.915 461.848 517.773 456.579 522.321C451.315 526.867 443.71 531.008 434.257 534.506C415.36 541.499 389.308 545.839 360.5 545.839V548.161C389.512 548.161 415.848 543.793 435.063 536.683C444.666 533.129 452.549 528.869 458.096 524.078C463.641 519.291 466.958 513.877 467.152 508.038L464.832 507.962ZM466 506.839H465.992V509.161H466V506.839ZM464.839 507.5V508H467.161V507.5H464.839ZM464.839 452V507.5H467.161V452H464.839Z" fill="url(#paint5_linear_235_20)" fill-opacity="0.5" mask="url(#path-7-inside-2_235_20)"/>
<ellipse cx="360.5" cy="452.5" rx="105.5" ry="39.5" fill="url(#paint6_linear_235_20)"/>
<path d="M465.42 452.5C465.42 457.728 462.592 462.778 457.325 467.441C452.058 472.103 444.404 476.327 434.896 479.887C415.885 487.005 389.582 491.42 360.5 491.42C331.418 491.42 305.115 487.005 286.104 479.887C276.596 476.327 268.942 472.103 263.675 467.441C258.408 462.778 255.58 457.728 255.58 452.5C255.58 447.272 258.408 442.222 263.675 437.559C268.942 432.897 276.596 428.673 286.104 425.113C305.115 417.995 331.418 413.58 360.5 413.58C389.582 413.58 415.885 417.995 434.896 425.113C444.404 428.673 452.058 432.897 457.325 437.559C462.592 442.222 465.42 447.272 465.42 452.5Z" stroke="url(#paint7_linear_235_20)" stroke-opacity="0.5" stroke-width="1.16055"/>
<mask id="path-11-inside-3_235_20" fill="white">
<path fill-rule="evenodd" clip-rule="evenodd" d="M888 452H677V507.5V508H677.008C677.723 529.585 724.68 547 782.5 547C840.32 547 887.277 529.585 887.992 508H888V507.5V452Z"/>
</mask>
<path fill-rule="evenodd" clip-rule="evenodd" d="M888 452H677V507.5V508H677.008C677.723 529.585 724.68 547 782.5 547C840.32 547 887.277 529.585 887.992 508H888V507.5V452Z" fill="url(#paint8_linear_235_20)"/>
<path d="M677 452V450.839H675.839V452H677ZM888 452H889.161V450.839H888V452ZM677 508H675.839V509.161H677V508ZM677.008 508L678.168 507.962L678.131 506.839H677.008V508ZM887.992 508V506.839H886.869L886.832 507.962L887.992 508ZM888 508V509.161H889.161V508H888ZM677 453.161H888V450.839H677V453.161ZM678.161 507.5V452H675.839V507.5H678.161ZM678.161 508V507.5H675.839V508H678.161ZM677.008 506.839H677V509.161H677.008V506.839ZM782.5 545.839C753.692 545.839 727.64 541.499 708.743 534.506C699.29 531.008 691.685 526.867 686.421 522.321C681.152 517.773 678.332 512.915 678.168 507.962L675.848 508.038C676.042 513.877 679.359 519.291 684.904 524.078C690.451 528.869 698.334 533.129 707.937 536.683C727.152 543.793 753.488 548.161 782.5 548.161V545.839ZM886.832 507.962C886.668 512.915 883.848 517.773 878.579 522.321C873.315 526.867 865.71 531.008 856.257 534.506C837.36 541.499 811.308 545.839 782.5 545.839V548.161C811.512 548.161 837.848 543.793 857.063 536.683C866.666 533.129 874.549 528.869 880.096 524.078C885.641 519.291 888.958 513.877 889.152 508.038L886.832 507.962ZM888 506.839H887.992V509.161H888V506.839ZM886.839 507.5V508H889.161V507.5H886.839ZM886.839 452V507.5H889.161V452H886.839Z" fill="url(#paint9_linear_235_20)" fill-opacity="0.5" mask="url(#path-11-inside-3_235_20)"/>
<ellipse cx="782.5" cy="452.5" rx="105.5" ry="39.5" fill="url(#paint10_linear_235_20)"/>
<path d="M887.42 452.5C887.42 457.728 884.592 462.778 879.325 467.441C874.058 472.103 866.404 476.327 856.896 479.887C837.885 487.005 811.582 491.42 782.5 491.42C753.418 491.42 727.115 487.005 708.104 479.887C698.596 476.327 690.942 472.103 685.675 467.441C680.408 462.778 677.58 457.728 677.58 452.5C677.58 447.272 680.408 442.222 685.675 437.559C690.942 432.897 698.596 428.673 708.104 425.113C727.115 417.995 753.418 413.58 782.5 413.58C811.582 413.58 837.885 417.995 856.896 425.113C866.404 428.673 874.058 432.897 879.325 437.559C884.592 442.222 887.42 447.272 887.42 452.5Z" stroke="url(#paint11_linear_235_20)" stroke-opacity="0.5" stroke-width="1.16055"/>
<mask id="path-15-inside-4_235_20" fill="white">
<path fill-rule="evenodd" clip-rule="evenodd" d="M768.533 378.29H572.197V429.865C572.197 429.887 572.197 429.91 572.197 429.932C572.197 429.955 572.197 429.977 572.197 430V430.398H572.205C572.87 450.482 616.563 466.687 670.365 466.687C724.167 466.687 767.86 450.482 768.525 430.398H768.533V378.29Z"/>
</mask>
<path fill-rule="evenodd" clip-rule="evenodd" d="M768.533 378.29H572.197V429.865C572.197 429.887 572.197 429.91 572.197 429.932C572.197 429.955 572.197 429.977 572.197 430V430.398H572.205C572.87 450.482 616.563 466.687 670.365 466.687C724.167 466.687 767.86 450.482 768.525 430.398H768.533V378.29Z" fill="url(#paint12_linear_235_20)"/>
<path d="M572.197 378.29V377.21H571.118V378.29H572.197ZM768.533 378.29H769.613V377.21H768.533V378.29ZM572.197 429.865L573.277 429.87V429.865H572.197ZM572.197 430H573.277L573.277 429.995L572.197 430ZM572.197 430.398H571.118V431.478H572.197V430.398ZM572.205 430.398L573.284 430.362L573.25 429.318H572.205V430.398ZM768.525 430.398V429.318H767.481L767.446 430.362L768.525 430.398ZM768.533 430.398V431.478H769.613V430.398H768.533ZM572.197 379.369H768.533V377.21H572.197V379.369ZM573.277 429.865V378.29H571.118V429.865H573.277ZM573.277 429.932C573.277 429.912 573.277 429.891 573.277 429.87L571.118 429.86C571.117 429.884 571.117 429.908 571.117 429.932H573.277ZM573.277 429.995C573.277 429.974 573.277 429.953 573.277 429.932H571.117C571.117 429.957 571.117 429.981 571.118 430.005L573.277 429.995ZM573.277 430.398V430H571.118V430.398H573.277ZM572.205 429.318H572.197V431.478H572.205V429.318ZM670.365 465.607C643.559 465.607 619.318 461.569 601.734 455.061C592.938 451.807 585.862 447.954 580.963 443.724C576.061 439.491 573.437 434.971 573.284 430.362L571.126 430.433C571.306 435.866 574.393 440.904 579.552 445.359C584.714 449.816 592.048 453.78 600.984 457.087C618.863 463.703 643.37 467.767 670.365 467.767V465.607ZM767.446 430.362C767.293 434.971 764.669 439.491 759.767 443.724C754.869 447.954 747.792 451.807 738.997 455.061C721.413 461.569 697.171 465.607 670.365 465.607V467.767C697.361 467.767 721.867 463.703 739.746 457.087C748.682 453.78 756.017 449.816 761.179 445.359C766.338 440.904 769.425 435.866 769.605 430.433L767.446 430.362ZM768.533 429.318H768.525V431.478H768.533V429.318ZM767.453 378.29V430.398H769.613V378.29H767.453Z" fill="url(#paint13_linear_235_20)" fill-opacity="0.5" mask="url(#path-15-inside-4_235_20)"/>
<ellipse cx="670.365" cy="378.755" rx="98.168" ry="36.7548" fill="url(#paint14_linear_235_20)"/>
<path d="M767.993 378.755C767.993 383.619 765.362 388.319 760.461 392.657C755.56 396.995 748.438 400.926 739.591 404.239C721.901 410.862 697.426 414.97 670.365 414.97C643.304 414.97 618.829 410.862 601.139 404.239C592.292 400.926 585.17 396.995 580.27 392.657C575.368 388.319 572.737 383.619 572.737 378.755C572.737 373.89 575.368 369.191 580.27 364.852C585.17 360.515 592.292 356.583 601.139 353.271C618.829 346.648 643.304 342.54 670.365 342.54C697.426 342.54 721.901 346.648 739.591 353.271C748.438 356.583 755.56 360.515 760.461 364.852C765.362 369.191 767.993 373.89 767.993 378.755Z" stroke="url(#paint15_linear_235_20)" stroke-opacity="0.5" stroke-width="1.07989"/>
<mask id="path-19-inside-5_235_20" fill="white">
<path fill-rule="evenodd" clip-rule="evenodd" d="M570.336 378.29H374V430.398H374.008C374.673 450.482 418.366 466.687 472.168 466.687C525.97 466.687 569.663 450.482 570.328 430.398H570.336V430.007C570.336 429.982 570.336 429.957 570.336 429.932C570.336 429.908 570.336 429.883 570.336 429.858V378.29Z"/>
</mask>
<path fill-rule="evenodd" clip-rule="evenodd" d="M570.336 378.29H374V430.398H374.008C374.673 450.482 418.366 466.687 472.168 466.687C525.97 466.687 569.663 450.482 570.328 430.398H570.336V430.007C570.336 429.982 570.336 429.957 570.336 429.932C570.336 429.908 570.336 429.883 570.336 429.858V378.29Z" fill="url(#paint16_linear_235_20)"/>
<path d="M374 378.29V377.21H372.92V378.29H374ZM570.336 378.29H571.416V377.21H570.336V378.29ZM374 430.398H372.92V431.478H374V430.398ZM374.008 430.398L375.087 430.362L375.053 429.318H374.008V430.398ZM570.328 430.398V429.318H569.284L569.249 430.362L570.328 430.398ZM570.336 430.398V431.478H571.416V430.398H570.336ZM570.336 430.007L569.256 430.001V430.007H570.336ZM570.336 429.858H569.256L569.256 429.864L570.336 429.858ZM374 379.369H570.336V377.21H374V379.369ZM375.08 430.398V378.29H372.92V430.398H375.08ZM374.008 429.318H374V431.478H374.008V429.318ZM472.168 465.607C445.362 465.607 421.121 461.569 403.537 455.061C394.741 451.807 387.665 447.954 382.766 443.724C377.864 439.491 375.24 434.971 375.087 430.362L372.929 430.433C373.109 435.866 376.196 440.904 381.355 445.359C386.517 449.816 393.851 453.78 402.787 457.087C420.666 463.703 445.173 467.767 472.168 467.767V465.607ZM569.249 430.362C569.096 434.971 566.472 439.491 561.57 443.724C556.672 447.954 549.595 451.807 540.8 455.061C523.216 461.569 498.974 465.607 472.168 465.607V467.767C499.164 467.767 523.67 463.703 541.549 457.087C550.485 453.78 557.82 449.816 562.982 445.359C568.141 440.904 571.228 435.866 571.408 430.433L569.249 430.362ZM570.336 429.318H570.328V431.478H570.336V429.318ZM569.256 430.007V430.398H571.416V430.007H569.256ZM569.256 429.932C569.256 429.956 569.256 429.978 569.256 430.001L571.416 430.013C571.416 429.986 571.416 429.959 571.416 429.932H569.256ZM569.256 429.864C569.256 429.886 569.256 429.909 569.256 429.932H571.416C571.416 429.906 571.416 429.879 571.416 429.852L569.256 429.864ZM569.256 378.29V429.858H571.416V378.29H569.256Z" fill="url(#paint17_linear_235_20)" fill-opacity="0.5" mask="url(#path-19-inside-5_235_20)"/>
<ellipse cx="472.168" cy="378.755" rx="98.168" ry="36.7548" fill="url(#paint18_linear_235_20)"/>
<path d="M569.796 378.755C569.796 383.619 567.165 388.319 562.263 392.657C557.363 396.995 550.241 400.926 541.394 404.239C523.704 410.862 499.229 414.97 472.168 414.97C445.107 414.97 420.632 410.862 402.942 404.239C394.095 400.926 386.973 396.995 382.072 392.657C377.171 388.319 374.54 383.619 374.54 378.755C374.54 373.89 377.171 369.191 382.072 364.852C386.973 360.515 394.095 356.583 402.942 353.271C420.632 346.648 445.107 342.54 472.168 342.54C499.229 342.54 523.704 346.648 541.394 353.271C550.241 356.583 557.363 360.515 562.263 364.852C567.165 369.191 569.796 373.89 569.796 378.755Z" stroke="url(#paint19_linear_235_20)" stroke-opacity="0.5" stroke-width="1.07989"/>
<mask id="path-23-inside-6_235_20" fill="white">
<path fill-rule="evenodd" clip-rule="evenodd" d="M664.622 312.875H479V362.139H479.008C479.637 381.128 520.945 396.448 571.811 396.448C622.677 396.448 663.985 381.128 664.615 362.139H664.622V361.777C664.622 361.751 664.622 361.725 664.622 361.699C664.622 361.673 664.622 361.647 664.622 361.621V312.875Z"/>
</mask>
<path fill-rule="evenodd" clip-rule="evenodd" d="M664.622 312.875H479V362.139H479.008C479.637 381.128 520.945 396.448 571.811 396.448C622.677 396.448 663.985 381.128 664.615 362.139H664.622V361.777C664.622 361.751 664.622 361.725 664.622 361.699C664.622 361.673 664.622 361.647 664.622 361.621V312.875Z" fill="url(#paint20_linear_235_20)"/>
<path d="M479 312.875V311.854H477.979V312.875H479ZM664.622 312.875H665.643V311.854H664.622V312.875ZM479 362.139H477.979V363.16H479V362.139ZM479.008 362.139L480.028 362.106L479.995 361.119H479.008V362.139ZM664.615 362.139V361.119H663.627L663.594 362.106L664.615 362.139ZM664.622 362.139V363.16H665.643V362.139H664.622ZM664.622 361.777L663.601 361.771V361.777H664.622ZM664.622 361.621H663.601L663.601 361.627L664.622 361.621ZM479 313.896H664.622V311.854H479V313.896ZM480.021 362.139V312.875H477.979V362.139H480.021ZM479.008 361.119H479V363.16H479.008V361.119ZM571.811 395.428C546.468 395.428 523.549 391.609 506.925 385.457C498.609 382.38 491.919 378.737 487.288 374.738C482.653 370.737 480.172 366.464 480.028 362.106L477.987 362.173C478.157 367.31 481.076 372.072 485.953 376.284C490.834 380.498 497.768 384.246 506.216 387.372C523.12 393.628 546.289 397.469 571.811 397.469V395.428ZM663.594 362.106C663.45 366.464 660.969 370.737 656.334 374.738C651.703 378.737 645.013 382.38 636.697 385.457C620.073 391.609 597.154 395.428 571.811 395.428V397.469C597.333 397.469 620.502 393.628 637.406 387.372C645.854 384.246 652.788 380.498 657.669 376.284C662.546 372.072 665.465 367.31 665.635 362.173L663.594 362.106ZM664.622 361.119H664.615V363.16H664.622V361.119ZM663.601 361.777V362.139H665.643V361.777H663.601ZM663.601 361.699C663.601 361.723 663.601 361.747 663.601 361.771L665.643 361.783C665.643 361.755 665.643 361.727 665.643 361.699H663.601ZM663.601 361.627C663.601 361.651 663.601 361.675 663.601 361.699H665.643C665.643 361.671 665.643 361.643 665.643 361.615L663.601 361.627ZM663.601 312.875V361.621H665.643V312.875H663.601Z" fill="url(#paint21_linear_235_20)" fill-opacity="0.5" mask="url(#path-23-inside-6_235_20)"/>
<ellipse cx="571.811" cy="313.314" rx="92.8108" ry="34.7491" fill="url(#paint22_linear_235_20)"/>
<path d="M664.111 313.314C664.111 317.914 661.623 322.356 656.99 326.458C652.357 330.559 645.623 334.276 637.259 337.408C620.534 343.67 597.395 347.553 571.811 347.553C546.227 347.553 523.087 343.67 506.363 337.408C497.998 334.276 491.265 330.559 486.632 326.458C481.998 322.356 479.51 317.914 479.51 313.314C479.51 308.715 481.998 304.273 486.632 300.171C491.265 296.07 497.998 292.353 506.363 289.221C523.087 282.959 546.227 279.076 571.811 279.076C597.395 279.076 620.534 282.959 637.259 289.221C645.623 292.353 652.357 296.07 656.99 300.171C661.623 304.273 664.111 308.715 664.111 313.314Z" stroke="url(#paint23_linear_235_20)" stroke-opacity="0.5" stroke-width="1.02096"/>
<mask id="path-27-inside-7_235_20" fill="white">
<path fill-rule="evenodd" clip-rule="evenodd" d="M649.533 258.961H493.822V300.288H493.829C494.356 316.216 529.009 329.068 571.678 329.068C614.347 329.068 648.999 316.216 649.527 300.288H649.533V299.977C649.533 299.957 649.533 299.938 649.533 299.918C649.533 299.899 649.533 299.88 649.533 299.86V258.961Z"/>
</mask>
<path fill-rule="evenodd" clip-rule="evenodd" d="M649.533 258.961H493.822V300.288H493.829C494.356 316.216 529.009 329.068 571.678 329.068C614.347 329.068 648.999 316.216 649.527 300.288H649.533V299.977C649.533 299.957 649.533 299.938 649.533 299.918C649.533 299.899 649.533 299.88 649.533 299.86V258.961Z" fill="url(#paint24_linear_235_20)"/>
<path d="M493.822 258.961V258.105H492.966V258.961H493.822ZM649.533 258.961H650.39V258.105H649.533V258.961ZM493.822 300.288H492.966V301.144H493.822V300.288ZM493.829 300.288L494.685 300.259L494.657 299.431H493.829V300.288ZM649.527 300.288V299.431H648.699L648.671 300.259L649.527 300.288ZM649.533 300.288V301.144H650.39V300.288H649.533ZM649.533 299.977L648.677 299.972V299.977H649.533ZM649.533 299.86H648.677L648.677 299.865L649.533 299.86ZM493.822 259.818H649.533V258.105H493.822V259.818ZM494.679 300.288V258.961H492.966V300.288H494.679ZM493.829 299.431H493.822V301.144H493.829V299.431ZM571.678 328.212C550.418 328.212 531.193 325.009 517.247 319.848C510.272 317.267 504.66 314.211 500.775 310.856C496.887 307.499 494.806 303.915 494.685 300.259L492.973 300.316C493.115 304.625 495.564 308.62 499.655 312.153C503.749 315.688 509.566 318.832 516.653 321.454C530.833 326.702 550.268 329.925 571.678 329.925V328.212ZM648.671 300.259C648.55 303.915 646.469 307.499 642.581 310.856C638.696 314.211 633.084 317.267 626.108 319.848C612.163 325.009 592.938 328.212 571.678 328.212V329.925C593.088 329.925 612.523 326.702 626.703 321.454C633.79 318.832 639.607 315.688 643.701 312.153C647.792 308.62 650.24 304.625 650.383 300.316L648.671 300.259ZM649.533 299.431H649.527V301.144H649.533V299.431ZM648.677 299.977V300.288H650.39V299.977H648.677ZM648.677 299.918C648.677 299.937 648.677 299.954 648.677 299.972L650.39 299.982C650.39 299.96 650.39 299.939 650.39 299.918H648.677ZM648.677 299.865C648.677 299.883 648.677 299.9 648.677 299.918H650.39C650.39 299.898 650.39 299.877 650.39 299.855L648.677 299.865ZM648.677 258.961V299.86H650.39V258.961H648.677Z" fill="url(#paint25_linear_235_20)" fill-opacity="0.5" mask="url(#path-27-inside-7_235_20)"/>
<ellipse cx="571.678" cy="259.33" rx="77.8555" ry="29.1497" fill="url(#paint26_linear_235_20)"/>
<path d="M649.105 259.33C649.105 263.188 647.018 266.915 643.131 270.356C639.245 273.796 633.596 276.914 626.58 279.541C612.55 284.794 593.139 288.052 571.678 288.052C550.216 288.052 530.806 284.794 516.776 279.541C509.759 276.914 504.111 273.796 500.224 270.356C496.337 266.915 494.25 263.188 494.25 259.33C494.25 255.472 496.337 251.745 500.224 248.305C504.111 244.864 509.759 241.746 516.776 239.119C530.806 233.867 550.216 230.609 571.678 230.609C593.139 230.609 612.55 233.867 626.58 239.119C633.596 241.746 639.245 244.864 643.131 248.305C647.018 251.745 649.105 255.472 649.105 259.33Z" stroke="url(#paint27_linear_235_20)" stroke-opacity="0.5" stroke-width="0.856445"/>
<mask id="path-31-inside-8_235_20" fill="white">
<path fill-rule="evenodd" clip-rule="evenodd" d="M632.515 222.127H512.801V253.9H512.806C513.212 266.146 539.853 276.027 572.658 276.027C605.463 276.027 632.104 266.146 632.511 253.9H632.515V253.667C632.515 253.65 632.515 253.633 632.515 253.616C632.515 253.599 632.515 253.582 632.515 253.565V222.127Z"/>
</mask>
<path fill-rule="evenodd" clip-rule="evenodd" d="M632.515 222.127H512.801V253.9H512.806C513.212 266.146 539.853 276.027 572.658 276.027C605.463 276.027 632.104 266.146 632.511 253.9H632.515V253.667C632.515 253.65 632.515 253.633 632.515 253.616C632.515 253.599 632.515 253.582 632.515 253.565V222.127Z" fill="url(#paint28_linear_235_20)"/>
<path d="M512.801 222.127V221.469H512.142V222.127H512.801ZM632.515 222.127H633.174V221.469H632.515V222.127ZM512.801 253.9H512.142V254.558H512.801V253.9ZM512.806 253.9L513.464 253.878L513.443 253.242H512.806V253.9ZM632.511 253.9V253.242H631.874L631.852 253.878L632.511 253.9ZM632.515 253.9V254.558H633.174V253.9H632.515ZM632.515 253.667L631.857 253.663V253.667H632.515ZM632.515 253.565H631.857L631.857 253.569L632.515 253.565ZM512.801 222.786H632.515V221.469H512.801V222.786ZM513.459 253.9V222.127H512.142V253.9H513.459ZM512.806 253.242H512.801V254.558H512.806V253.242ZM572.658 275.369C556.313 275.369 541.532 272.906 530.811 268.938C525.448 266.954 521.133 264.604 518.146 262.025C515.157 259.445 513.557 256.689 513.464 253.878L512.148 253.922C512.257 257.234 514.14 260.306 517.285 263.022C520.433 265.74 524.905 268.157 530.354 270.173C541.255 274.208 556.198 276.685 572.658 276.685V275.369ZM631.852 253.878C631.759 256.689 630.159 259.445 627.17 262.025C624.183 264.604 619.869 266.954 614.505 268.938C603.784 272.906 589.003 275.369 572.658 275.369V276.685C589.118 276.685 604.061 274.208 614.962 270.173C620.411 268.157 624.883 265.74 628.031 263.022C631.176 260.306 633.059 257.234 633.169 253.922L631.852 253.878ZM632.515 253.242H632.511V254.558H632.515V253.242ZM631.857 253.667V253.9H633.174V253.667H631.857ZM631.857 253.616C631.857 253.632 631.857 253.647 631.857 253.663L633.174 253.671C633.174 253.653 633.174 253.634 633.174 253.616H631.857ZM631.857 253.569C631.857 253.585 631.857 253.6 631.857 253.616H633.174C633.174 253.598 633.174 253.579 633.174 253.561L631.857 253.569ZM631.857 222.127V253.565H633.174V222.127H631.857Z" fill="url(#paint29_linear_235_20)" fill-opacity="0.5" mask="url(#path-31-inside-8_235_20)"/>
<ellipse cx="572.658" cy="222.411" rx="59.8572" ry="22.411" fill="url(#paint30_linear_235_20)"/>
<path d="M632.186 222.411C632.186 225.377 630.582 228.242 627.593 230.888C624.605 233.533 620.262 235.93 614.868 237.95C604.081 241.988 589.158 244.493 572.658 244.493C556.158 244.493 541.234 241.988 530.448 237.95C525.054 235.93 520.711 233.533 517.723 230.888C514.734 228.242 513.13 225.377 513.13 222.411C513.13 219.445 514.734 216.58 517.723 213.934C520.711 211.289 525.054 208.892 530.448 206.872C541.234 202.834 556.158 200.329 572.658 200.329C589.158 200.329 604.081 202.834 614.868 206.872C620.262 208.892 624.605 211.289 627.593 213.934C630.582 216.58 632.186 219.445 632.186 222.411Z" stroke="url(#paint31_linear_235_20)" stroke-opacity="0.5" stroke-width="0.658456"/>
<defs>
<filter id="filter0_f_235_20" x="156.073" y="0.0731659" width="829.854" height="743.854" filterUnits="userSpaceOnUse" color-interpolation-filters="sRGB">
<feFlood flood-opacity="0" result="BackgroundImageFix"/>
<feBlend mode="normal" in="SourceGraphic" in2="BackgroundImageFix" result="shape"/>
<feGaussianBlur stdDeviation="91.4634" result="effect1_foregroundBlur_235_20"/>
</filter>
<filter id="filter1_f_235_20" x="0.0731659" y="238.073" width="1141.85" height="534.854" filterUnits="userSpaceOnUse" color-interpolation-filters="sRGB">
<feFlood flood-opacity="0" result="BackgroundImageFix"/>
<feBlend mode="normal" in="SourceGraphic" in2="BackgroundImageFix" result="shape"/>
<feGaussianBlur stdDeviation="91.4634" result="effect1_foregroundBlur_235_20"/>
</filter>
<linearGradient id="paint0_linear_235_20" x1="571.5" y1="452" x2="571.5" y2="508" gradientUnits="userSpaceOnUse">
<stop stop-color="#0A2977"/>
<stop offset="1" stop-color="#051D61"/>
</linearGradient>
<linearGradient id="paint1_linear_235_20" x1="466" y1="451.133" x2="473.023" y2="527.415" gradientUnits="userSpaceOnUse">
<stop stop-color="#96AAE2" stop-opacity="0.44"/>
<stop offset="1" stop-color="#0B44EA" stop-opacity="0.13"/>
</linearGradient>
<linearGradient id="paint2_linear_235_20" x1="571.5" y1="413" x2="571.5" y2="492" gradientUnits="userSpaceOnUse">
<stop stop-color="#0A2977"/>
<stop offset="1" stop-color="#051D61"/>
</linearGradient>
<linearGradient id="paint3_linear_235_20" x1="466" y1="411.777" x2="479.861" y2="518.502" gradientUnits="userSpaceOnUse">
<stop stop-color="#96AAE2" stop-opacity="0.44"/>
<stop offset="1" stop-color="#0B44EA" stop-opacity="0.13"/>
</linearGradient>
<linearGradient id="paint4_linear_235_20" x1="360.5" y1="452" x2="360.5" y2="508" gradientUnits="userSpaceOnUse">
<stop stop-color="#0A2977"/>
<stop offset="1" stop-color="#051D61"/>
</linearGradient>
<linearGradient id="paint5_linear_235_20" x1="255" y1="451.133" x2="262.023" y2="527.415" gradientUnits="userSpaceOnUse">
<stop stop-color="#96AAE2" stop-opacity="0.44"/>
<stop offset="1" stop-color="#0B44EA" stop-opacity="0.13"/>
</linearGradient>
<linearGradient id="paint6_linear_235_20" x1="360.5" y1="413" x2="360.5" y2="492" gradientUnits="userSpaceOnUse">
<stop stop-color="#0A2977"/>
<stop offset="1" stop-color="#051D61"/>
</linearGradient>
<linearGradient id="paint7_linear_235_20" x1="255" y1="411.777" x2="268.861" y2="518.502" gradientUnits="userSpaceOnUse">
<stop stop-color="#96AAE2" stop-opacity="0.44"/>
<stop offset="1" stop-color="#0B44EA" stop-opacity="0.13"/>
</linearGradient>
<linearGradient id="paint8_linear_235_20" x1="782.5" y1="452" x2="782.5" y2="508" gradientUnits="userSpaceOnUse">
<stop stop-color="#0A2977"/>
<stop offset="1" stop-color="#051D61"/>
</linearGradient>
<linearGradient id="paint9_linear_235_20" x1="677" y1="451.133" x2="684.023" y2="527.415" gradientUnits="userSpaceOnUse">
<stop stop-color="#96AAE2" stop-opacity="0.44"/>
<stop offset="1" stop-color="#0B44EA" stop-opacity="0.13"/>
</linearGradient>
<linearGradient id="paint10_linear_235_20" x1="782.5" y1="413" x2="782.5" y2="492" gradientUnits="userSpaceOnUse">
<stop stop-color="#0A2977"/>
<stop offset="1" stop-color="#051D61"/>
</linearGradient>
<linearGradient id="paint11_linear_235_20" x1="677" y1="411.777" x2="690.861" y2="518.502" gradientUnits="userSpaceOnUse">
<stop stop-color="#96AAE2" stop-opacity="0.44"/>
<stop offset="1" stop-color="#0B44EA" stop-opacity="0.13"/>
</linearGradient>
<linearGradient id="paint12_linear_235_20" x1="670.365" y1="378.29" x2="670.365" y2="430.398" gradientUnits="userSpaceOnUse">
<stop stop-color="#0A2977"/>
<stop offset="1" stop-color="#051D61"/>
</linearGradient>
<linearGradient id="paint13_linear_235_20" x1="572.197" y1="377.483" x2="578.732" y2="448.464" gradientUnits="userSpaceOnUse">
<stop stop-color="#96AAE2" stop-opacity="0.44"/>
<stop offset="1" stop-color="#0B44EA" stop-opacity="0.13"/>
</linearGradient>
<linearGradient id="paint14_linear_235_20" x1="670.365" y1="342" x2="670.365" y2="415.51" gradientUnits="userSpaceOnUse">
<stop stop-color="#0A2977"/>
<stop offset="1" stop-color="#051D61"/>
</linearGradient>
<linearGradient id="paint15_linear_235_20" x1="572.197" y1="340.862" x2="585.095" y2="440.169" gradientUnits="userSpaceOnUse">
<stop stop-color="#96AAE2" stop-opacity="0.44"/>
<stop offset="1" stop-color="#0B44EA" stop-opacity="0.13"/>
</linearGradient>
<linearGradient id="paint16_linear_235_20" x1="472.168" y1="378.29" x2="472.168" y2="430.398" gradientUnits="userSpaceOnUse">
<stop stop-color="#0A2977"/>
<stop offset="1" stop-color="#051D61"/>
</linearGradient>
<linearGradient id="paint17_linear_235_20" x1="374" y1="377.483" x2="380.535" y2="448.464" gradientUnits="userSpaceOnUse">
<stop stop-color="#96AAE2" stop-opacity="0.44"/>
<stop offset="1" stop-color="#0B44EA" stop-opacity="0.13"/>
</linearGradient>
<linearGradient id="paint18_linear_235_20" x1="472.168" y1="342" x2="472.168" y2="415.51" gradientUnits="userSpaceOnUse">
<stop stop-color="#0A2977"/>
<stop offset="1" stop-color="#051D61"/>
</linearGradient>
<linearGradient id="paint19_linear_235_20" x1="374" y1="340.862" x2="386.897" y2="440.169" gradientUnits="userSpaceOnUse">
<stop stop-color="#96AAE2" stop-opacity="0.44"/>
<stop offset="1" stop-color="#0B44EA" stop-opacity="0.13"/>
</linearGradient>
<linearGradient id="paint20_linear_235_20" x1="571.811" y1="312.875" x2="571.811" y2="362.139" gradientUnits="userSpaceOnUse">
<stop stop-color="#0A2977"/>
<stop offset="1" stop-color="#051D61"/>
</linearGradient>
<linearGradient id="paint21_linear_235_20" x1="479" y1="312.112" x2="485.178" y2="379.22" gradientUnits="userSpaceOnUse">
<stop stop-color="#96AAE2" stop-opacity="0.44"/>
<stop offset="1" stop-color="#0B44EA" stop-opacity="0.13"/>
</linearGradient>
<linearGradient id="paint22_linear_235_20" x1="571.811" y1="278.565" x2="571.811" y2="348.064" gradientUnits="userSpaceOnUse">
<stop stop-color="#0A2977"/>
<stop offset="1" stop-color="#051D61"/>
</linearGradient>
<linearGradient id="paint23_linear_235_20" x1="479" y1="277.489" x2="491.194" y2="371.378" gradientUnits="userSpaceOnUse">
<stop stop-color="#96AAE2" stop-opacity="0.44"/>
<stop offset="1" stop-color="#0B44EA" stop-opacity="0.13"/>
</linearGradient>
<linearGradient id="paint24_linear_235_20" x1="571.678" y1="258.961" x2="571.678" y2="300.287" gradientUnits="userSpaceOnUse">
<stop stop-color="#0A2977"/>
<stop offset="1" stop-color="#051D61"/>
</linearGradient>
<linearGradient id="paint25_linear_235_20" x1="493.822" y1="258.321" x2="499.005" y2="314.615" gradientUnits="userSpaceOnUse">
<stop stop-color="#96AAE2" stop-opacity="0.44"/>
<stop offset="1" stop-color="#0B44EA" stop-opacity="0.13"/>
</linearGradient>
<linearGradient id="paint26_linear_235_20" x1="571.678" y1="230.181" x2="571.678" y2="288.48" gradientUnits="userSpaceOnUse">
<stop stop-color="#0A2977"/>
<stop offset="1" stop-color="#051D61"/>
</linearGradient>
<linearGradient id="paint27_linear_235_20" x1="493.822" y1="229.278" x2="504.051" y2="308.037" gradientUnits="userSpaceOnUse">
<stop stop-color="#96AAE2" stop-opacity="0.44"/>
<stop offset="1" stop-color="#0B44EA" stop-opacity="0.13"/>
</linearGradient>
<linearGradient id="paint28_linear_235_20" x1="572.658" y1="222.127" x2="572.658" y2="253.9" gradientUnits="userSpaceOnUse">
<stop stop-color="#0A2977"/>
<stop offset="1" stop-color="#051D61"/>
</linearGradient>
<linearGradient id="paint29_linear_235_20" x1="512.801" y1="221.635" x2="516.785" y2="264.915" gradientUnits="userSpaceOnUse">
<stop stop-color="#96AAE2" stop-opacity="0.44"/>
<stop offset="1" stop-color="#0B44EA" stop-opacity="0.13"/>
</linearGradient>
<linearGradient id="paint30_linear_235_20" x1="572.658" y1="200" x2="572.658" y2="244.822" gradientUnits="userSpaceOnUse">
<stop stop-color="#0A2977"/>
<stop offset="1" stop-color="#051D61"/>
</linearGradient>
<linearGradient id="paint31_linear_235_20" x1="512.801" y1="199.306" x2="520.665" y2="259.858" gradientUnits="userSpaceOnUse">
<stop stop-color="#96AAE2" stop-opacity="0.44"/>
<stop offset="1" stop-color="#0B44EA" stop-opacity="0.13"/>
</linearGradient>
</defs>
</svg>
